<?xml version="1.0" encoding="utf-8"?>
<!-- Generator: Adobe Illustrator 19.1.0, SVG Export Plug-In . SVG Version: 6.00 Build 0)  -->
<svg version="1.1" id="Layer_1" data-name="Layer 1" xmlns="http://www.w3.org/2000/svg" viewBox="0 0 591 630">
    <defs>
        <style>.cls-1{fill:#f9f9fa;}.cls-2{fill:#ed1c24;}.cls-3{fill:#231f20;}.cls-4,.cls-5{fill:none;stroke:#000;stroke-miterlimit:10;}.cls-4{stroke-width:14px;}.cls-5{stroke-width:13px;}.cls-6{fill:#1d2227;}.cls-7{fill:#fff;}
        </style>
    </defs>
    <title>atletico-go</title>
    <polygon class="cls-1" points="1 0 590 1 591 219 297 630 0 220 1 0"/>
    <polygon class="cls-2" points="70 234 283 233 284 536 70 234"/>
    <polygon class="cls-3" points="521 234 308 233 307 536 521 234"/>
    <polygon class="cls-4" points="21 18.98 569.02 18 570 212 295.99 600 21 213.95 21 18.98"/>
    <rect class="cls-5" x="59" y="57.5" width="473.5" height="135"/>
    <polygon class="cls-6" points="97.5 172 117.5 172.5 126.5 151.5 167.5 151.5 176 171.5 197.5 171.5 158.5 78 138 78 97.5 172"/>
    <polygon class="cls-7" points="135 133 159.5 133 147 105 135 133"/>
    <path class="cls-6" d="M396.55,2150.92l15-15.67s-34.17-30.83-69.67-4c0,0-33.71,27.08-11.33,66,0,0,22.83,34.83,64,17.33a45.19,45.19,0,0,0,16.33-12.33l-12.67-14s-19.33,23.67-42.67,4.67c0,0-25.67-22.67,3-49C358.55,2143.92,377.21,2131.58,396.55,2150.92Z" transform="translate(-69.55 -2044.58)"/>
    <path class="cls-6" d="M524.17,2162l39.63,0.63,0.5,41s-18.62,20.25-55,13.75c0,0-48.25-12-31.87-66.5,0,0,11.75-33.37,51.88-30.25,0,0,19.13.5,33.38,13.25l-14.37,16.5s-21.12-23.37-44.75-2c0,0-20.62,18.88.25,43,0,0,20.38,17.38,42,2.63l0.13-13.5-21.62.13Z" transform="translate(-69.55 -2044.58)"/>
</svg>