<?xml version="1.0" encoding="utf-8"?>
<!-- Generator: Adobe Illustrator 23.0.1, SVG Export Plug-In . SVG Version: 6.00 Build 0)  -->
<svg version="1.1" xmlns="http://www.w3.org/2000/svg" xmlns:xlink="http://www.w3.org/1999/xlink" x="0px" y="0px"
	 viewBox="0 0 600 600" style="enable-background:new 0 0 600 600;" xml:space="preserve">
<style type="text/css">
	.st0{display:none;}
	.st1{fill-rule:evenodd;clip-rule:evenodd;fill:#1D1D1B;}
	.st2{fill-rule:evenodd;clip-rule:evenodd;fill:#FFFFFF;}
	.st3{fill:#1D1D1B;}
	.st4{display:inline;}
	.st5{fill:#E30613;}
	.st6{fill-rule:evenodd;clip-rule:evenodd;fill:#FFCC00;}
	.st7{fill-rule:evenodd;clip-rule:evenodd;fill:#FFFFFF;stroke:#1D1D1B;stroke-width:0.216;stroke-miterlimit:2.4142;}
	.st8{fill:none;stroke:#1D1D1B;stroke-width:0.216;stroke-miterlimit:2.4142;}
	.st9{font-family:'ArialMT';}
	.st10{font-size:14.1137px;}
	.st11{fill:none;stroke:#1D1D1B;stroke-width:0.9998;stroke-miterlimit:2.4142;}
	.st12{font-size:8.481px;}
	.st13{fill-rule:evenodd;clip-rule:evenodd;fill:none;stroke:#1D1D1B;stroke-width:0.9998;stroke-miterlimit:2.4142;}
	.st14{fill:none;stroke:#1D1D1B;stroke-width:0.216;stroke-miterlimit:2.4142;stroke-dasharray:1.08,1.08,0,0,0,0;}
	.st15{fill:none;stroke:#E30613;stroke-width:0.9998;stroke-miterlimit:2.4142;}
</style>
<g id="Grade" class="st0">
</g>
<g id="Camada_1">
</g>
<g id="_xA1_rea_de_trabalho">
</g>
<g id="Linhas-guia" class="st0">
</g>
<g id="Page_1">
	<g id="Camada_1_1_">
		<g>
			<g>
				<path class="st1" d="M58.7,26.7C41,60.7,23.3,94.8,5.5,128.9C50,154.6,50.8,216.6,21,295.4c-45.2,119.5,24.9,212.7,145.4,226.8
					c50.9,6,101.4,26.4,133.6,51.1c32.2-24.7,82.7-45.2,133.6-51.1C554.1,508.1,624.2,414.9,579,295.4
					c-29.8-78.8-29-140.8,15.5-166.5C576.7,94.8,559,60.7,541.3,26.7C460.9,78.2,380.4,89.2,300,28C219.6,89.2,139.1,78.2,58.7,26.7
					L58.7,26.7z"/>
			</g>
			<g>
				<polygon class="st2" points="39.7,302.1 36,312.6 33.1,322.6 30.8,332.4 29,341.9 27.8,351.2 27.2,360.3 27.1,369.1 27.5,377.6 
					28.5,386 29.9,394 31.8,401.8 34.2,409.4 37,416.7 40.3,423.8 44,430.6 48.1,437.2 52.6,443.5 57.6,449.6 63,455.4 68.8,460.9 
					75.1,466.2 81.7,471.2 88.7,475.8 96.1,480.2 103.9,484.2 112.1,487.9 120.7,491.3 129.6,494.3 138.9,496.9 148.5,499.2 
					158.4,501 169,502.5 173.8,503.1 178.9,503.8 184,504.6 189.1,505.6 194.1,506.5 199.2,507.6 204.1,508.7 209.1,510 
					214.1,511.3 219,512.6 223.8,514.1 228.6,515.6 233.4,517.1 238.1,518.7 242.8,520.4 247.4,522.2 252,524 256.5,525.9 
					261,527.8 265.4,529.8 269.7,531.9 273.9,534 278.1,536.1 282.2,538.3 286.3,540.5 290.2,542.8 294.1,545.2 297.9,547.6 
					300,549 302.1,547.6 305.9,545.2 309.8,542.8 313.7,540.6 317.8,538.3 321.9,536.1 326.1,534 330.3,531.9 334.7,529.8 
					339,527.8 343.5,525.9 348,524 352.6,522.2 357.2,520.4 361.9,518.7 366.6,517.1 371.4,515.6 376.2,514.1 381.1,512.6 
					386,511.3 390.9,510 395.9,508.7 400.9,507.6 405.9,506.5 410.9,505.6 416,504.6 421.1,503.8 426.2,503.1 431,502.5 441.6,501 
					451.5,499.2 461.1,496.9 470.4,494.3 479.3,491.3 487.9,487.9 496.1,484.2 503.9,480.2 511.3,475.8 518.3,471.2 525,466.2 
					531.2,460.9 537,455.4 542.4,449.6 547.4,443.5 551.9,437.2 556.1,430.6 559.8,423.8 563,416.7 565.8,409.4 568.2,401.8 
					570.1,394 571.5,386 572.5,377.6 572.9,369.1 572.8,360.3 572.2,351.2 571,341.9 569.3,332.4 566.9,322.6 564,312.6 
					560.3,302.1 557.6,294.8 554.9,287.2 552.5,279.7 550.2,272.3 548.1,265 546.2,257.8 544.5,250.7 543.1,243.6 541.8,236.7 
					540.7,229.9 539.9,223.1 539.2,216.5 538.8,209.9 538.6,203.5 538.7,197.1 539,190.8 539.6,184.7 540.4,178.7 541.5,172.7 
					542.9,166.9 544.6,161.3 546.6,155.7 549,150.3 551.6,145.1 554.6,140.1 557.9,135.2 561.6,130.7 565.6,126.3 569,123 
					553.5,93.4 550.2,87 540.3,67.8 536.9,61.4 533.4,54.6 528.2,57.6 520.2,61.8 512.1,65.7 504,69.4 495.9,72.8 487.8,75.9 
					479.6,78.7 471.4,81.3 463.1,83.5 454.9,85.4 446.6,86.9 438.2,88.1 429.8,89 421.4,89.5 413,89.6 404.6,89.4 396.1,88.8 
					387.7,87.8 379.2,86.4 370.8,84.6 362.4,82.4 354,79.7 345.6,76.7 337.3,73.3 329,69.4 320.7,65.2 312.4,60.5 304.2,55.4 
					300,52.5 295.8,55.4 287.6,60.5 279.3,65.1 271.1,69.4 262.7,73.3 254.4,76.7 246,79.7 237.6,82.4 229.2,84.6 220.8,86.4 
					212.3,87.8 203.9,88.8 195.4,89.4 187,89.6 178.6,89.5 170.2,89 161.8,88.1 153.5,86.9 145.1,85.4 136.9,83.5 128.6,81.3 
					120.4,78.7 112.2,75.9 104.1,72.8 96,69.4 87.9,65.7 79.9,61.8 71.8,57.6 66.6,54.6 63.1,61.4 59.8,67.8 49.8,87 46.5,93.4 
					31,123 34.4,126.3 38.4,130.6 42.1,135.2 45.4,140.1 48.4,145.1 51,150.3 53.4,155.7 55.4,161.3 57.1,166.9 58.5,172.7 
					59.6,178.7 60.4,184.7 61,190.8 61.3,197.1 61.4,203.5 61.2,209.9 60.8,216.5 60.2,223.1 59.3,229.9 58.2,236.7 57,243.6 
					55.5,250.7 53.8,257.8 51.9,265 49.8,272.3 47.5,279.7 45.1,287.2 42.4,294.8 39.7,302.1 				"/>
				<path class="st3" d="M300,549.3l-2.3-1.5l-3.8-2.4l-3.9-2.3l-3.9-2.3l-4-2.2l-4.1-2.2l-4.2-2.1l-4.2-2.1l-4.3-2l-4.4-2l-4.4-1.9
					l-4.5-1.9l-4.6-1.8l-4.6-1.8L238,519l-4.7-1.6l-4.8-1.6l-4.8-1.5l-4.9-1.4l-4.9-1.4l-4.9-1.3l-5-1.2l-5-1.1l-5-1.1l-5-1
					l-5.1-0.9l-5.1-0.8l-5.1-0.7l-4.8-0.6l-10.6-1.5l-10-1.8l-9.6-2.2l-9.3-2.6l-8.9-3l-8.6-3.4l-8.2-3.7l-7.8-4.1l-7.4-4.4l-7-4.7
					l-6.6-5l-6.2-5.3l-5.8-5.5l-5.4-5.8l-5-6.1l-4.6-6.3l-4.1-6.6l-3.7-6.8l-3.3-7.1l-2.8-7.3l-2.4-7.6l-1.9-7.8l-1.4-8.1l-0.9-8.3
					l-0.4-8.6l0.1-8.8l0.6-9.1l1.2-9.3l1.8-9.5l2.3-9.8l3-10l3.7-10.5l2.7-7.3l2.6-7.6l2.5-7.5l2.3-7.4l2.1-7.3l1.9-7.2l1.7-7.1
					l1.5-7l1.3-6.9l1.1-6.8l0.9-6.7l0.6-6.6l0.4-6.5l0.2-6.4l-0.1-6.3l-0.3-6.2l-0.6-6.1l-0.8-6l-1.1-5.9l-1.4-5.8l-1.7-5.7l-2-5.5
					l-2.3-5.4l-2.7-5.2l-3-5l-3.3-4.8l-3.6-4.6l-4-4.3l-3.6-3.4l35.8-68.9l5.5,3.1l8,4.2l8,3.9l8.1,3.7l8.1,3.4l8.1,3.1l8.2,2.8
					l8.2,2.5l8.2,2.2l8.3,1.9l8.3,1.6l8.3,1.2l8.4,0.9l8.4,0.5l8.4,0.1l8.4-0.2l8.4-0.6l8.4-1l8.4-1.4l8.4-1.8l8.4-2.2l8.4-2.6
					l8.4-3l8.3-3.4l8.3-3.9l8.3-4.3l8.2-4.7l8.2-5.1l4.4-3l4.4,3l8.2,5.1l8.2,4.7l8.3,4.3l8.3,3.8l8.3,3.4l8.3,3l8.4,2.6l8.4,2.2
					l8.4,1.8l8.4,1.4l8.4,1l8.4,0.6l8.4,0.2l8.4-0.1l8.4-0.5l8.4-0.9l8.4-1.2l8.3-1.6l8.3-1.9l8.2-2.2l8.2-2.5l8.2-2.8l8.1-3.1
					l8.1-3.4l8.1-3.7l8-3.9l8-4.2l5.5-3.1l7,13.4l28.8,55.4l-0.2,0.2l-3.4,3.2l-4,4.3l-3.6,4.6l-3.3,4.8l-3,5l-2.7,5.2l-2.3,5.4
					l-2,5.5l-1.7,5.7l-1.4,5.8l-1.1,5.9l-0.8,6l-0.6,6.1l-0.3,6.3l-0.1,6.3l0.2,6.4l0.4,6.5l0.6,6.6l0.8,6.7l1.1,6.8l1.3,6.9l1.5,7
					l1.7,7.1l1.9,7.2l2.1,7.3l2.3,7.4l2.5,7.5l2.6,7.6l2.7,7.3l3.7,10.5l3,10l2.3,9.8l1.8,9.5l1.2,9.3l0.6,9.1l0.1,8.8l-0.4,8.6
					l-0.9,8.3l-1.4,8.1l-1.9,7.8l-2.4,7.6l-2.8,7.3l-3.3,7.1l-3.7,6.8l-4.1,6.6l-4.6,6.4l-5,6.1l-5.4,5.8l-5.8,5.6l-6.2,5.3l-6.6,5
					l-7,4.7l-7.4,4.4l-7.8,4.1l-8.2,3.7l-8.6,3.4l-8.9,3l-9.3,2.6l-9.6,2.2l-10,1.8l-10.6,1.5l-4.8,0.6l-5.1,0.7l-5.1,0.8l-5.1,0.9
					l-5,1l-5,1.1l-5,1.1l-5,1.2l-4.9,1.3l-4.9,1.4l-4.9,1.4l-4.8,1.5l-4.8,1.6L362,519l-4.7,1.7l-4.6,1.8l-4.6,1.8l-4.5,1.9
					l-4.4,1.9l-4.4,2l-4.3,2l-4.3,2.1l-4.2,2.1l-4.1,2.2l-4,2.3l-3.9,2.3l-3.9,2.3l-3.8,2.4L300,549.3z M40,302.2l-3.7,10.5l-2.9,10
					l-2.3,9.8l-1.8,9.5l-1.2,9.3l-0.6,9l-0.1,8.8l0.4,8.5l0.9,8.3l1.4,8l1.9,7.8l2.4,7.5l2.8,7.3l3.3,7.1l3.7,6.8l4.1,6.6l4.5,6.3
					l5,6.1l5.4,5.8l5.8,5.5l6.2,5.3l6.6,5l7,4.7l7.4,4.4l7.8,4l8.2,3.7l8.5,3.4l8.9,3l9.3,2.6l9.6,2.2l9.9,1.8l10.6,1.5l4.8,0.6
					l5.1,0.7l5.1,0.8l5.1,0.9l5,1l5,1.1l5,1.1l5,1.2l4.9,1.3l4.9,1.4l4.9,1.4l4.8,1.5l4.8,1.6l4.7,1.6l4.7,1.7l4.6,1.8l4.6,1.8
					l4.5,1.9l4.5,1.9l4.4,2l4.3,2l4.3,2.1l4.2,2.1l4.1,2.2l4,2.3l4,2.3l3.9,2.3l3.8,2.4l2,1.3l2-1.3l3.8-2.4l3.9-2.3l3.9-2.3l4-2.3
					l4.1-2.2l4.2-2.1l4.3-2.1l4.3-2l4.4-2l4.5-1.9l4.5-1.9l4.6-1.8l4.7-1.8l4.7-1.7l4.7-1.6l4.8-1.6l4.8-1.5l4.9-1.4l4.9-1.4
					l4.9-1.3l5-1.2l5-1.1l5-1.1l5-1l5.1-0.9l5.1-0.8l5.1-0.7l4.8-0.6l10.6-1.5l9.9-1.8l9.6-2.2l9.3-2.6l8.9-3l8.5-3.4l8.2-3.7l7.8-4
					l7.4-4.4l7-4.7l6.6-5l6.2-5.3l5.8-5.5l5.4-5.8l5-6l4.5-6.3l4.1-6.6l3.7-6.8l3.3-7.1l2.8-7.3l2.4-7.5l1.9-7.8l1.4-8l0.9-8.3
					l0.4-8.5l-0.1-8.8l-0.6-9l-1.2-9.3l-1.7-9.5l-2.3-9.7l-2.9-10l-3.7-10.5l-2.7-7.3l-2.6-7.6l-2.5-7.5l-2.3-7.4l-2.1-7.3l-1.9-7.2
					l-1.7-7.1l-1.5-7l-1.3-6.9l-1.1-6.9l-0.9-6.8l-0.6-6.7l-0.4-6.6l-0.2-6.5l0.1-6.4l0.3-6.3l0.6-6.2l0.8-6l1.1-5.9l1.4-5.8
					l1.7-5.7l2-5.6l2.3-5.4l2.7-5.3l3-5l3.3-4.8l3.7-4.6l4-4.4l3.3-3.1L533.3,55l-5,2.8l-8,4.2l-8,4l-8.1,3.7l-8.1,3.4l-8.1,3.1
					l-8.2,2.8l-8.2,2.5l-8.3,2.2l-8.3,1.9l-8.3,1.6l-8.4,1.2l-8.4,0.9l-8.4,0.5l-8.4,0.1l-8.5-0.2l-8.5-0.6l-8.5-1l-8.4-1.4
					l-8.5-1.8l-8.4-2.2l-8.4-2.6l-8.4-3l-8.4-3.4l-8.3-3.9l-8.3-4.3l-8.2-4.7l-8.2-5.1l-4.1-2.8l-4.1,2.8l-8.2,5.1l-8.2,4.7
					l-8.3,4.3l-8.3,3.9l-8.4,3.4l-8.4,3l-8.4,2.6l-8.4,2.2l-8.5,1.8l-8.5,1.4l-8.5,1l-8.5,0.6l-8.5,0.2l-8.4-0.1l-8.4-0.5l-8.4-0.9
					l-8.4-1.2l-8.3-1.6l-8.3-1.9l-8.3-2.2l-8.2-2.5l-8.2-2.8l-8.1-3.1l-8.1-3.4L87.8,66l-8.1-4l-8-4.2l-5-2.8L31.4,123l3.2,3.1
					l4,4.4l3.7,4.6l3.3,4.8l3,5l2.7,5.2l2.3,5.4l2,5.6l1.7,5.7l1.4,5.8l1.1,5.9l0.8,6.1l0.6,6.1l0.3,6.3l0.1,6.4l-0.2,6.5l-0.4,6.6
					l-0.6,6.6l-0.9,6.8l-1.1,6.9l-1.3,6.9l-1.5,7l-1.7,7.1l-1.9,7.2l-2.1,7.3l-2.3,7.4l-2.5,7.5l-2.6,7.6L40,302.2z"/>
			</g>
			<g>
				<path class="st1" d="M518.1,165.8v305.5l-6.8,4.5l-7.4,4.4l-7.8,4l-8.2,3.7l-8.6,3.4l-8.6,2.9V196.9l-48.8,32v274.7l-0.9,0.1
					l-5.1,0.8l-5.1,0.9l-5,1l-5,1.1l-5,1.1l-5,1.2l-4.9,1.3l-4.9,1.4l-4.9,1.4l-1.7,0.5V260.1l-48.8,32v241.9l-3.9,2l-4.1,2.2
					l-4,2.3l-3.9,2.3l-3.9,2.3l-3.8,2.4l-1.9,1.2h-0.5l-1.9-1.2l-3.8-2.4l-3.9-2.3l-3.9-2.3l-4-2.3l-3.9-2.1V323.3l-48.8,32v160.5
					l-0.9-0.3l-4.8-1.5l-4.9-1.4l-4.9-1.4l-4.9-1.3l-5-1.2l-5-1.1l-5-1.1l-5-1l-5.1-0.9l-1.9-0.3V386.5l-48.8,32v76.8l-3.8-1.1
					l-8.9-3l-8.6-3.4l-8.2-3.7l-7.8-4l-7.4-4.4L86,474v-24.3L68.9,461l-0.1,0l-5.8-5.5l-5.4-5.8l-5-6.1l-4.6-6.3l-4.1-6.6l-3.7-6.8
					l-3.3-7.1l-2.8-7.3l-2.4-7.6l-1.9-7.8l-1.4-8.1l-0.5-4.4L476.1,79.8l3.5-1.1l8.2-2.8l8.1-3.1l8.1-3.4l8.1-3.7l8-4l8-4.2l5.2-2.9
					l3.5,6.8l3.3,6.4l10,19.2l3.3,6.4L569,123l-3.4,3.2l-4,4.4l-3.6,4.6l-3.3,4.8l-1.7,2.8L518.1,165.8L518.1,165.8z M76.7,376.3
					l7.2,11c-2.4-0.6-4.5-0.9-6.3-0.7c-1.8,0.2-3.5,0.8-5.1,1.8c-2.9,1.9-4.6,4.4-5.1,7.5c-0.5,3.1,0.3,6.3,2.3,9.4
					c1.9,2.9,4.4,4.8,7.5,5.6c3.1,0.8,6,0.2,8.9-1.6c1.6-1,2.8-2.3,3.7-3.9c0.9-1.6,1.5-3.6,1.9-6.1l7.2,11
					c-1.1,1.8-2.3,3.4-3.6,4.8c-1.3,1.4-2.8,2.6-4.4,3.7c-2,1.3-4,2.3-6,2.9c-2,0.6-4.1,0.9-6.1,0.9c-3.9-0.1-7.6-1-10.8-2.9
					c-3.3-1.9-6-4.5-8.3-8c-1.8-2.8-3-5.7-3.6-8.6s-0.6-5.9,0-9c0.6-2.9,1.7-5.5,3.3-7.9c1.6-2.3,3.7-4.3,6.4-6.1
					c1.6-1,3.3-1.9,5.1-2.5C72.7,377,74.6,376.6,76.7,376.3L76.7,376.3z M101.8,404.5c-0.9-1.4-1.2-2.9-0.9-4.5
					c0.3-1.6,1.2-2.9,2.6-3.8c1.5-1,3-1.3,4.6-0.9c1.6,0.3,2.9,1.2,3.8,2.6c0.9,1.4,1.2,3,0.9,4.6c-0.3,1.6-1.2,2.9-2.7,3.9
					c-1.4,0.9-2.9,1.2-4.5,0.8C104,406.8,102.8,405.9,101.8,404.5L101.8,404.5z M122.3,377.4l10-6.5l-11.7-9.7
					c-0.4-0.3-0.9-0.8-1.6-1.5c-0.7-0.7-1.7-1.6-2.8-2.7c0.4,1,0.7,2,1,3c0.3,1,0.6,1.9,0.9,2.8L122.3,377.4L122.3,377.4z
					 M117.2,400.3l-11.3-45.1l12.6-8.2l36.7,28.5l-10,6.5l-6.2-5.4l-14.2,9.3l2.4,7.8L117.2,400.3L117.2,400.3z M155.1,369.7
					c-0.9-1.4-1.2-2.9-0.9-4.5c0.3-1.6,1.2-2.9,2.6-3.8c1.5-1,3-1.3,4.6-0.9c1.6,0.3,2.9,1.2,3.8,2.6c0.9,1.4,1.2,3,0.9,4.6
					c-0.3,1.6-1.2,2.9-2.7,3.9c-1.4,0.9-2.9,1.2-4.5,0.8C157.3,372,156,371.2,155.1,369.7L155.1,369.7z M185.7,324.1l2-1.3
					c2.5-1.6,4-3,4.6-4.1c0.6-1.1,0.4-2.4-0.5-3.7c-0.9-1.4-2-2.1-3.2-2.1c-1.2,0-3.1,0.8-5.6,2.4l-2.2,1.4L185.7,324.1L185.7,324.1
					z M190.8,352.3l-24-36.8l10.1-6.6c4.1-2.7,7.1-4.5,9-5.3c1.8-0.8,3.5-1.3,5.2-1.4c1.8-0.1,3.5,0.2,5.1,1c1.5,0.8,2.9,2,3.9,3.7
					c1.4,2.1,1.9,4.1,1.7,6c-0.3,1.9-1.4,4-3.3,6.1c2.7-1.5,5.4-1.9,7.9-1.2c2.5,0.7,4.7,2.4,6.5,5.1c1.3,2,2,3.9,2.1,6
					c0.1,2-0.3,4-1.3,5.8c-0.8,1.5-2.1,3-3.7,4.5c-1.7,1.5-4.6,3.6-8.8,6.3L190.8,352.3L190.8,352.3z M195.2,338.7l3.5-2.3
					c2.4-1.5,3.9-3,4.5-4.2c0.6-1.2,0.4-2.6-0.5-3.9c-1-1.5-2.2-2.3-3.5-2.3c-1.3,0-3.2,0.8-5.6,2.4l-3.7,2.4L195.2,338.7
					L195.2,338.7z M225.7,329.5l-24-36.8l10.5-6.8c4.1-2.7,7.1-4.4,8.9-5c1.9-0.7,3.7-1,5.4-0.8c2,0.1,3.8,0.8,5.6,1.9
					c1.7,1.1,3.2,2.6,4.4,4.5c1.9,2.8,2.7,5.6,2.4,8.3c-0.2,2.7-1.5,5.2-3.8,7.5l19.7,8.3l-11.3,7.4l-17.8-8.9l9.4,14.4L225.7,329.5
					L225.7,329.5z M222.5,303.9l1.9-1.2c2.2-1.4,3.5-2.8,4-4.2c0.5-1.4,0.3-2.9-0.8-4.4c-1.2-1.8-2.5-2.9-4-3
					c-1.4-0.2-3.2,0.5-5.4,1.9l-2,1.3L222.5,303.9L222.5,303.9z M259.5,287.9l10-6.5l-11.7-9.7c-0.4-0.3-0.9-0.8-1.6-1.5
					c-0.7-0.7-1.7-1.6-2.8-2.7c0.4,1,0.7,2,1,3c0.3,1,0.6,1.9,0.9,2.8L259.5,287.9L259.5,287.9z M254.4,310.8l-11.3-45.1l12.6-8.2
					l36.7,28.5l-10,6.5l-6.2-5.4l-14.2,9.3l2.4,7.8L254.4,310.8L254.4,310.8z M303.7,259.3l-5-7.7l19.7-12.9
					c0.2,0.2,0.4,0.5,0.6,0.8c0.2,0.3,0.5,0.7,0.9,1.3c4.1,6.3,5.7,12.3,4.6,18c-1.1,5.7-4.6,10.5-10.7,14.4c-3,2-5.9,3.2-8.8,3.8
					c-2.9,0.6-5.9,0.6-8.9-0.1c-2.9-0.6-5.6-1.8-8.1-3.6c-2.5-1.8-4.7-4-6.4-6.6c-1.8-2.7-3-5.6-3.5-8.5c-0.6-2.9-0.5-5.9,0.1-9
					c0.7-3,1.9-5.7,3.7-8.2c1.8-2.5,4.1-4.6,6.8-6.4c3.6-2.3,7.3-3.7,11-4.1c3.7-0.4,7.4,0.2,11.1,1.8l-6,9.8c-2-0.7-3.8-1-5.6-0.9
					c-1.8,0.2-3.4,0.8-5,1.8c-3,2-4.7,4.5-5.1,7.6c-0.4,3.1,0.5,6.4,2.8,9.9c2.3,3.5,4.9,5.7,8,6.6c3,0.9,6.1,0.4,9.1-1.6
					c2.5-1.7,4.3-3.7,5.1-6c0.9-2.4,0.8-4.7-0.3-6.9L303.7,259.3L303.7,259.3z M339.1,235.9l10-6.5l-11.7-9.7
					c-0.3-0.3-0.9-0.8-1.6-1.5c-0.7-0.7-1.7-1.6-2.8-2.7c0.4,1,0.7,2,1,3c0.3,1,0.6,1.9,0.9,2.8L339.1,235.9L339.1,235.9z
					 M334.1,258.8l-11.3-45.1l12.6-8.2L372,234l-10,6.5l-6.2-5.4l-14.2,9.3l2.4,7.8L334.1,258.8L334.1,258.8z M375.6,231.7l-24-36.8
					l9.7-6.3l26.2,9.9c0.5,0.2,1.5,0.7,2.8,1.5c1.4,0.8,2.9,1.7,4.7,2.8c-1.2-1.4-2.2-2.7-3.1-3.8c-0.9-1.1-1.6-2.1-2.2-3.1
					l-11.9-18.2l9.6-6.3l24,36.8l-9.6,6.3l-26.3-9.9c-0.5-0.2-1.5-0.7-2.9-1.4c-1.4-0.8-2.9-1.7-4.7-2.8c1.2,1.4,2.2,2.7,3.1,3.8
					c0.9,1.1,1.6,2.1,2.2,3.1l11.9,18.2L375.6,231.7L375.6,231.7z M424.7,199.6l-18.3-28.1l-8.2,5.4l-5.7-8.7l26.5-17.3l5.7,8.7
					l-8.2,5.4l18.3,28.1L424.7,199.6L424.7,199.6z M448.1,184.4l-24-36.8l10.1-6.6l24,36.8L448.1,184.4L448.1,184.4z M466.3,172.5
					l-24-36.8l9.7-6.3l26.2,9.9c0.5,0.2,1.5,0.7,2.8,1.5c1.4,0.8,2.9,1.7,4.7,2.8c-1.2-1.4-2.2-2.7-3.1-3.8
					c-0.9-1.1-1.6-2.1-2.2-3.1l-11.9-18.2l9.6-6.3l24,36.8l-9.6,6.3l-26.3-9.9c-0.5-0.2-1.5-0.7-2.9-1.4c-1.4-0.8-2.9-1.7-4.7-2.8
					c1.2,1.4,2.2,2.7,3.1,3.8c0.9,1.1,1.6,2.2,2.2,3.1l11.9,18.2L466.3,172.5L466.3,172.5z M536,100.9c1.7,2.7,2.9,5.4,3.4,8.4
					c0.5,2.9,0.5,5.9-0.2,9c-0.7,3-1.9,5.8-3.7,8.4c-1.8,2.6-4,4.7-6.6,6.4c-2.6,1.7-5.5,2.9-8.5,3.5c-3.1,0.6-6.1,0.6-9.1,0
					c-3.1-0.6-5.9-1.7-8.4-3.4c-2.5-1.7-4.6-3.8-6.3-6.5c-1.7-2.6-2.8-5.4-3.4-8.4c-0.5-3-0.4-6,0.3-9c0.6-3,1.8-5.8,3.6-8.3
					c1.8-2.5,4-4.7,6.6-6.4c2.6-1.7,5.4-2.9,8.5-3.5c3.1-0.6,6.1-0.6,9.1,0c3,0.6,5.8,1.8,8.3,3.4C532.2,96.1,534.3,98.3,536,100.9
					L536,100.9z M523.4,124.5c2.8-1.8,4.4-4.3,4.9-7.6c0.5-3.2-0.3-6.4-2.3-9.5c-2-3.1-4.6-5.1-7.8-5.9c-3.2-0.9-6.1-0.4-8.9,1.4
					c-2.8,1.8-4.4,4.3-4.9,7.6c-0.5,3.2,0.3,6.4,2.3,9.5c2.1,3.1,4.6,5.2,7.7,6C517.6,126.9,520.6,126.4,523.4,124.5L523.4,124.5z"
					/>
			</g>
			<g>
				<path class="st3" d="M151.4,113.7L151.4,113.7c19.2,0,36.6,7.8,49.3,20.5c13.2,13.2,20.4,30.8,20.5,49.2v0v0
					c0,19.2-7.8,36.6-20.5,49.3c-12.6,12.6-30,20.4-49.2,20.5h0h0c-19.2,0-36.6-7.8-49.2-20.5c-12.6-12.6-20.4-30-20.5-49.2v0v0
					c0-19.2,7.8-36.6,20.5-49.3C114.8,121.6,132.2,113.7,151.4,113.7L151.4,113.7L151.4,113.7z M214.2,171.8
					c-4,1.3-14.8,4.1-22.6,3.2c0.9,12.9,0.4,18.3,0.4,30.7c0,9.2,0,18.2,0.4,26.7c1.4-1.2,2.8-2.4,4.1-3.8
					c11.6-11.6,18.7-27.5,18.7-45.1v0v0C215.3,179.5,214.9,175.6,214.2,171.8L214.2,171.8z M190.6,233.8l-3.9,3
					c-0.3-5.5-0.4-14-0.4-19.9c-3,0.9-6.1,1.7-9.3,2.4c-3.3,0.7-6.6,1.2-9.9,1.6c-4.2,0.5-8.4,0.7-12.6,0.8l1.1,25.4
					C168.7,246.3,180.8,241.5,190.6,233.8L190.6,233.8z M149.7,247.3l-1.1-25.6c-11.1-0.3-24-2-34.3-4.7l0.8-6.7
					c15.4,4,35,6.7,51.3,4.8c3.2-0.4,6.3-0.9,9.4-1.5c3-0.6,6-1.4,9-2.4l0,0c0.3-0.1,0.4-0.1,0.5-0.1l1,3.1c0-2.8,0-5.7,0-8.6
					c0-4.5,0-9.1,0-13.8c-2.1,0.6-4.3,1.1-6.5,1.6c-3.3,0.7-6.6,1.2-9.9,1.6c-17,2-38.1,0.3-54.1-3.9l0-6.7
					c15.4,4,37.2,6.7,53.4,4.8c3.2-0.4,6.3-0.9,9.4-1.5c2.5-0.5,5.1-1.2,7.6-1.9c-0.1-6.3-0.4-12.7-0.8-19.1
					c-21.2-2-45.8-1.5-66.9,0.4c-3.1,22-4.1,48.4-3.5,68.6l-5.7-4.5C120,240.9,134.1,246.9,149.7,247.3L149.7,247.3z M108.9,231.1
					c-0.5-20-0.4-34.5,2.6-56.2c-8.1,0.9-18.9-3.1-23.2-3.8l1.3-3.9c-1.4,5.2-2.1,10.7-2.1,16.3v0v0c0,17.6,7.2,33.5,18.7,45.1
					C107.1,229.4,108,230.3,108.9,231.1L108.9,231.1z M90.2,165.1c3.1,1.7,13.7,4.7,22.2,3.8c0.3-2.2,1.5-11.5,1.8-13.6
					c0.9-5,1.9-10.1,3-15.3c0.9-4.1,1.9-8.3,3-12.3c-5.2,2.9-9.9,6.5-14.1,10.7C98.9,145.7,93.3,154.8,90.2,165.1L90.2,165.1z
					 M125.3,125.1l1.6,0.5l-0.2,0.8h0c-1.4,4.9-2.6,9.9-3.7,14.8c-1.1,4.9-2.1,9.9-3,15c-0.3,1.7-0.6,3.3-0.8,5
					c20.7-1.8,44.7-2.2,65.5-0.3c-1.2-12.2-3.3-24.3-7.2-35.7c-6.3-2.9-13.2-4.7-20.5-5.4v24.1h-5.9v-24.3
					C142,119.6,133.2,121.6,125.3,125.1L125.3,125.1z M184.9,129.1c3,10.5,5.3,29,6.3,40c7.4,0.8,18.4-2.1,21.5-3.7
					c-3.1-10.3-8.7-19.6-16.1-27C193,134.8,189.1,131.7,184.9,129.1L184.9,129.1z M185.2,211.1C185.3,211.1,185.3,211.1,185.2,211.1
					L185.2,211.1L185.2,211.1z M185.2,211.1C185.2,211.1,185.1,211.2,185.2,211.1L185.2,211.1L185.2,211.1z"/>
			</g>
			<g>
				<path class="st3" d="M151.5,253.5c-18.7,0-36.3-7.3-49.5-20.6c-13.2-13.2-20.5-30.8-20.5-49.4c0-18.7,7.3-36.3,20.6-49.5
					c13.2-13.2,30.8-20.5,49.4-20.5h0.1c18.6,0,36.2,7.3,49.5,20.6c13.2,13.2,20.5,30.8,20.5,49.4c0,18.7-7.3,36.3-20.6,49.5
					C187.6,246.2,170.1,253.5,151.5,253.5z M151.4,114c-18.5,0-35.9,7.2-49,20.4c-13.1,13.1-20.4,30.6-20.4,49
					c0,18.5,7.2,35.9,20.4,49.1c13.1,13.1,30.6,20.4,49,20.4c18.5,0,35.9-7.2,49.1-20.4c13.1-13.1,20.4-30.6,20.4-49
					c0-18.5-7.2-35.9-20.4-49.1C187.3,121.3,169.9,114,151.4,114l0.1-0.3L151.4,114L151.4,114z M150,247.6l-0.3,0
					c-12.4-0.3-24.4-4.3-34.5-11.3l0,0l-0.3-0.2c-2.1-1.4-4.1-3-5.9-4.7l0.3-0.4l-0.5,0.2c-1-0.9-1.9-1.7-2.7-2.5
					c-12.1-12.1-18.8-28.2-18.8-45.3c0-4.1,0.4-8.2,1.2-12.2c0,0,0,0-0.1,0l-0.3-0.1l1.4-4.2l0.6,0.2c-0.3,1.2-0.6,2.4-0.8,3.6
					c1.1,0.2,2.4,0.6,4,1c5.3,1.4,12.6,3.4,18.5,2.7l0.4,0l-0.1,0.4c-2.9,21.4-3.2,35.7-2.6,56.2l0.1-0.1l5.2,4.1
					c-0.1-5.2-0.2-11.2-0.1-17.7c-0.1,0-0.1,0-0.2,0l-0.2-0.1l0.5-4.6c0.2-6.8,0.5-14,1-21.2l-0.2-0.1l0.1-7.3l0.4,0.1
					c0.1,0,0.2,0.1,0.3,0.1c0.5-5.8,1.1-11.6,1.9-17.1l0-0.2l0.2,0c22.8-2.1,47.2-2.2,66.9-0.4l0.3,0l0,0.3c0.4,5.7,0.7,12,0.8,19.1
					l0,0.2l-0.2,0.1c-2.5,0.7-5,1.4-7.6,1.9c-3,0.6-6.2,1.1-9.4,1.5c-16.4,1.9-38-0.9-52.5-4.6c-0.2,2-0.3,4-0.5,6
					c16.3,4.2,37.2,5.7,53.6,3.8c3.3-0.4,6.7-0.9,9.9-1.6c2.3-0.5,4.5-1,6.5-1.6l0.4-0.1l0,0.4c0,4.3,0,8.5,0,12.7l0,1.1
					c0,2.9,0,5.7,0,8.6l-0.6,0.1l-0.9-2.8l-0.1,0v0c0,0,0,0-0.1,0l-0.2,0.1l0,0c-3,0.9-5.9,1.7-8.8,2.3c-3,0.6-6.2,1.1-9.4,1.5
					c-14.2,1.6-33.3-0.1-51.1-4.7l-0.2,2c0,1.4-0.1,2.9-0.1,4.3c9.8,2.5,22.3,4.2,33.6,4.5l0.3,0l0,0.3L150,247.6z M115.1,235.6
					c10,7,22,11,34.3,11.4l-1-25c-11.2-0.3-23.5-2-33.3-4.5C114.9,224.1,114.9,230.3,115.1,235.6z M89,171.4c-0.8,4-1.2,8-1.2,12
					c0,17,6.6,32.9,18.7,44.9c0.7,0.7,1.4,1.3,2.1,2c-0.5-20-0.3-34.3,2.6-55.2c-6,0.5-13.1-1.4-18.3-2.8
					C91.4,172,90,171.6,89,171.4z M115.2,210c17.8,4.7,36.9,6.5,51.1,4.8c3.2-0.4,6.3-0.9,9.4-1.5c3-0.6,6-1.4,9-2.4l0.7-0.2l0,0
					l0.1,0l0,0l0,0l0.3,0.6l-0.1,0l0.3,0.9c0-2.2,0-4.4,0-6.6l0-1.1c0-4,0-8.1,0-12.3c-1.9,0.5-4,1-6.1,1.5
					c-3.2,0.7-6.6,1.2-9.9,1.6c-16.4,1.9-37.4,0.4-53.7-3.8C115.7,197.8,115.4,204.1,115.2,210z M116.7,184.4
					c14.5,3.7,36,6.5,52.4,4.6c3.2-0.4,6.3-0.9,9.4-1.5c2.5-0.5,4.9-1.1,7.3-1.8c-0.1-6.9-0.4-13-0.8-18.6
					c-19.6-1.8-43.7-1.7-66.3,0.4C117.8,172.9,117.2,178.6,116.7,184.4z M116,184.8l0,1C116,185.4,116,185.1,116,184.8
					C116,184.8,116,184.8,116,184.8z M155.2,247.5l0-0.3l-1.1-25.7l0.3,0c4.3-0.1,8.5-0.3,12.5-0.8c3.3-0.4,6.7-0.9,9.9-1.6
					c3.2-0.7,6.3-1.5,9.3-2.4l0.4-0.1l0,0.4c0.1,8.5,0.2,14.9,0.4,19.2c1.1-0.7,2.1-1.5,3.2-2.3l0.3-0.2l0.4,0.5l0,0
					c-0.1,0.1-0.2,0.1-0.3,0.2l-4.1,3.2l0-0.3c-9.2,6-19.8,9.6-30.8,10.3L155.2,247.5z M154.8,222.1l1,24.8
					c10.9-0.8,21.4-4.3,30.5-10.3c-0.2-4.2-0.3-10.6-0.4-19.2c-2.9,0.9-5.9,1.6-8.9,2.3c-3.2,0.7-6.6,1.2-9.9,1.6
					C163.1,221.7,158.9,222,154.8,222.1z M192.2,232.9l0-0.6c-0.4-8.5-0.4-17.3-0.4-26.7c0-3.6,0-6.6,0.1-9.3
					c0.1-6.8,0.2-12.2-0.5-21.4l0-0.4l0.4,0c7.5,0.9,18-1.7,22.5-3.1l0.3-0.1l0.1,0.3c0.7,3.8,1.1,7.7,1.1,11.6
					c0,17.2-6.7,33.3-18.8,45.4c-1.2,1.2-2.6,2.5-4.1,3.8L192.2,232.9z M192,175.3c0.6,9,0.5,14.3,0.5,21.1c0,2.7-0.1,5.7-0.1,9.3
					c0,9.1,0,17.8,0.4,26c1.3-1.1,2.5-2.2,3.6-3.3c12-12,18.6-28,18.7-44.9c0-3.8-0.3-7.6-1-11.2C209.4,173.7,199.3,176.1,192,175.3
					z M194,169.5c-1,0-2,0-2.9-0.1l-0.2,0l0-0.2c-0.4-4.4-2.6-27.3-6.3-39.9l0.4-0.3c4.2,2.6,8.2,5.8,11.7,9.3
					c7.6,7.6,13.2,17,16.2,27.1l0.1,0.2l-0.2,0.1C209.9,167.1,201.1,169.5,194,169.5z M191.4,168.8c7.1,0.7,17.4-1.9,20.9-3.6
					c-3-10-8.5-19.2-16-26.7c-3.3-3.3-7-6.3-11-8.8C188.8,142.4,191,163.9,191.4,168.8z M109.2,169.3c-7.8,0-16.4-2.5-19.1-4
					l-0.2-0.1L90,165c3-10.1,8.6-19.4,16.1-26.9c4.2-4.2,9-7.8,14.1-10.7l0.4,0.3c-1.1,4.1-2.1,8.3-3,12.3c-1.1,5-2.1,10.2-3,15.3
					c-0.2,1.2-0.7,4.8-1.1,7.9c-0.3,2.4-0.6,4.8-0.8,5.7l0,0.2l-0.2,0C111.4,169.3,110.3,169.3,109.2,169.3z M90.6,164.9
					c3.3,1.7,13.4,4.5,21.6,3.7c0.2-1.1,0.4-3.2,0.7-5.5c0.4-3.2,0.9-6.7,1.1-8c0.9-5.1,1.9-10.2,3-15.3c0.8-3.8,1.8-7.7,2.8-11.6
					c-4.9,2.8-9.4,6.2-13.4,10.3C99.1,145.9,93.6,155,90.6,164.9z M118.9,161.5l0.1-0.4c0.3-1.7,0.5-3.3,0.8-5
					c0.9-5.1,1.9-10.2,3-15c1.1-5,2.4-10,3.7-14.8l0.1-0.5l-1.4-0.4l0-0.6c8.2-3.7,17-5.6,26-5.6l0.3,0v24.3h5.3v-24.1l0.3,0
					c7.1,0.6,14,2.4,20.6,5.4l0.1,0.1l0,0.1c3.5,10.4,5.9,22,7.2,35.7l0,0.4l-0.4,0c-19.3-1.7-43.2-1.6-65.5,0.3L118.9,161.5z
					 M127,126.7c-1.3,4.8-2.6,9.7-3.7,14.6c-1.1,4.8-2.1,9.9-3,15c-0.3,1.5-0.5,3.1-0.8,4.6c22.1-1.9,45.6-2,64.8-0.3
					c-1.3-13.4-3.6-24.9-7.1-35.1c-6.3-2.8-13-4.6-19.9-5.2v24.1h-6.4v-24.3c-8.6,0.1-16.9,1.8-24.7,5.2l1.1,0.3L127,126.7z"/>
			</g>
		</g>
	</g>
</g>
<g id="medidas" class="st0">
	<g id="Camada_1_2_" class="st4">
		<polygon class="st5" points="193.5,452.4 188.7,449.7 193.5,447.1 193.5,452.4 		"/>
		<polygon class="st5" points="406.5,452.4 411.3,449.7 406.5,447.1 406.5,452.4 		"/>
		<polygon class="st5" points="438.6,426.5 436,431.3 433.4,426.5 438.6,426.5 		"/>
		<polygon class="st5" points="438.6,229.4 436,224.6 433.4,229.4 438.6,229.4 		"/>
		<g>
			<polygon class="st6" points="300,170 304.3,183.4 318.4,183.4 307,191.7 311.4,205.1 300,196.8 288.6,205.1 293,191.7 
				281.6,183.4 295.7,183.4 300,170 			"/>
			<g>
				<path class="st1" d="M212.4,228.5c-6.4,12.4-12.9,24.7-19.3,37.1c16.2,9.3,16.4,31.8,5.6,60.4c-16.4,43.4,9.1,77.2,52.8,82.3
					c18.5,2.2,36.8,9.6,48.5,18.6c11.7-9,30-16.4,48.5-18.6c43.7-5.1,69.2-39,52.8-82.3c-10.8-28.6-10.5-51.1,5.6-60.4
					c-6.4-12.4-12.9-24.7-19.3-37.1c-29.2,18.7-58.4,22.7-87.6,0.5C270.8,251.2,241.6,247.2,212.4,228.5L212.4,228.5z"/>
				<polygon class="st7" points="205.5,328.4 204.2,332.3 203.1,335.9 202.3,339.4 201.6,342.9 201.2,346.3 201,349.5 201,352.7 
					201.1,355.8 201.4,358.9 202,361.8 202.7,364.6 203.5,367.4 204.5,370 205.7,372.6 207.1,375.1 208.6,377.5 210.2,379.8 
					212,382 214,384.1 216.1,386.1 218.4,388 220.8,389.8 223.3,391.5 226,393.1 228.8,394.5 231.8,395.9 234.9,397.1 238.2,398.2 
					241.5,399.1 245,400 248.6,400.6 252.5,401.2 254.2,401.4 256.1,401.7 257.9,401.9 259.7,402.3 261.6,402.6 263.4,403 
					265.2,403.4 267,403.9 268.8,404.3 270.6,404.8 272.3,405.4 274.1,405.9 275.8,406.5 277.5,407.1 279.2,407.7 280.9,408.3 
					282.6,409 284.2,409.7 285.8,410.4 287.4,411.1 289,411.8 290.5,412.6 292.1,413.4 293.5,414.2 295,415 296.4,415.8 
					297.9,416.7 299.2,417.5 300,418 300.8,417.5 302.2,416.7 303.6,415.8 305,415 306.5,414.2 307.9,413.4 309.5,412.6 311,411.8 
					312.6,411.1 314.2,410.4 315.8,409.7 317.4,409 319.1,408.3 320.8,407.7 322.5,407.1 324.2,406.5 325.9,405.9 327.7,405.4 
					329.4,404.8 331.2,404.3 333,403.9 334.8,403.4 336.6,403 338.4,402.6 340.3,402.3 342.1,401.9 343.9,401.7 345.8,401.4 
					347.5,401.2 351.4,400.6 355,400 358.5,399.1 361.9,398.2 365.1,397.1 368.2,395.9 371.2,394.5 374,393.1 376.7,391.5 
					379.2,389.8 381.7,388 383.9,386.1 386,384.1 388,382 389.8,379.8 391.4,377.5 392.9,375.1 394.3,372.6 395.5,370 396.5,367.4 
					397.4,364.6 398,361.8 398.6,358.9 398.9,355.8 399.1,352.7 399,349.5 398.8,346.3 398.4,342.9 397.7,339.4 396.9,335.9 
					395.8,332.3 394.5,328.4 393.5,325.8 392.5,323 391.6,320.3 390.8,317.6 390.1,315 389.4,312.4 388.8,309.8 388.2,307.2 
					387.8,304.7 387.4,302.2 387.1,299.8 386.8,297.3 386.7,295 386.6,292.6 386.6,290.3 386.8,288 387,285.8 387.3,283.6 
					387.7,281.5 388.2,279.4 388.8,277.3 389.5,275.3 390.4,273.3 391.3,271.4 392.4,269.6 393.6,267.9 395,266.2 396.4,264.6 
					397.6,263.4 392,252.7 390.8,250.3 387.2,243.4 386,241.1 384.7,238.6 382.8,239.7 379.9,241.2 377,242.6 374.1,244 
					371.1,245.2 368.2,246.3 365.2,247.4 362.2,248.3 359.2,249.1 356.2,249.8 353.2,250.3 350.2,250.8 347.1,251.1 344.1,251.3 
					341,251.3 338,251.2 334.9,251 331.8,250.6 328.8,250.1 325.7,249.5 322.6,248.7 319.6,247.7 316.6,246.6 313.5,245.4 
					310.5,244 307.5,242.4 304.5,240.7 301.5,238.9 300,237.8 298.5,238.9 295.5,240.7 292.5,242.4 289.5,244 286.5,245.4 
					283.4,246.6 280.4,247.7 277.4,248.7 274.3,249.5 271.2,250.1 268.2,250.6 265.1,251 262,251.2 259,251.3 255.9,251.3 
					252.9,251.1 249.8,250.8 246.8,250.3 243.8,249.8 240.8,249.1 237.8,248.3 234.8,247.4 231.8,246.3 228.9,245.2 225.9,244 
					223,242.6 220.1,241.2 217.2,239.7 215.3,238.6 214,241.1 212.8,243.4 209.2,250.3 208,252.7 202.4,263.4 203.6,264.6 
					205.1,266.2 206.4,267.9 207.6,269.6 208.7,271.4 209.6,273.3 210.5,275.3 211.2,277.3 211.8,279.4 212.3,281.5 212.7,283.6 
					213,285.8 213.3,288 213.4,290.3 213.4,292.6 213.3,295 213.2,297.3 212.9,299.8 212.6,302.2 212.2,304.7 211.8,307.2 
					211.2,309.8 210.6,312.4 209.9,315 209.2,317.6 208.4,320.3 207.5,323 206.5,325.8 205.5,328.4 				"/>
				<path class="st1" d="M379.2,278.9v110.9l-2.5,1.6l-2.7,1.6l-2.8,1.5l-3,1.3l-3.1,1.2l-3.1,1.1V290.3l-17.7,11.6v99.7l-0.3,0
					l-1.8,0.3l-1.8,0.3l-1.8,0.4l-1.8,0.4l-1.8,0.4l-1.8,0.4l-1.8,0.5l-1.8,0.5l-1.8,0.5l-0.6,0.2v-92.4l-17.7,11.6v87.8l-1.4,0.7
					l-1.5,0.8L305,415l-1.4,0.8l-1.4,0.8l-1.4,0.9l-0.7,0.4h-0.2l-0.7-0.4l-1.4-0.9l-1.4-0.8L295,415l-1.5-0.8l-1.4-0.8v-77.3
					l-17.7,11.6V406l-0.3-0.1l-1.7-0.5l-1.8-0.5l-1.8-0.5l-1.8-0.5l-1.8-0.4l-1.8-0.4l-1.8-0.4l-1.8-0.4l-1.8-0.3l-0.7-0.1v-42.8
					l-17.7,11.6v27.9l-1.4-0.4l-3.2-1.1l-3.1-1.2l-3-1.3l-2.8-1.5l-2.7-1.6l-1-0.7V382l-6.2,4.1l0,0l-2.1-2l-2-2.1l-1.8-2.2
					l-1.7-2.3l-1.5-2.4l-1.3-2.5l-1.2-2.6l-1-2.7l-0.9-2.7l-0.7-2.8l-0.5-2.9l-0.2-1.6l162.7-109.5l1.3-0.4l3-1l3-1.1l2.9-1.2
					l2.9-1.3l2.9-1.4l2.9-1.5l1.9-1.1l1.3,2.5l1.2,2.3l3.6,7l1.2,2.3l5.6,10.8l-1.2,1.2l-1.4,1.6l-1.3,1.7l-1.2,1.7l-0.6,1
					L379.2,278.9L379.2,278.9z M219,355.4l2.6,4c-0.9-0.2-1.6-0.3-2.3-0.2c-0.7,0.1-1.3,0.3-1.8,0.7c-1,0.7-1.7,1.6-1.8,2.7
					c-0.2,1.1,0.1,2.3,0.9,3.4c0.7,1.1,1.6,1.7,2.7,2c1.1,0.3,2.2,0.1,3.2-0.6c0.6-0.4,1-0.8,1.3-1.4c0.3-0.6,0.6-1.3,0.7-2.2l2.6,4
					c-0.4,0.7-0.8,1.2-1.3,1.8c-0.5,0.5-1,1-1.6,1.3c-0.7,0.5-1.5,0.8-2.2,1.1c-0.7,0.2-1.5,0.3-2.2,0.3c-1.4,0-2.7-0.4-3.9-1
					c-1.2-0.7-2.2-1.6-3-2.9c-0.7-1-1.1-2.1-1.3-3.1c-0.2-1.1-0.2-2.1,0-3.3c0.2-1.1,0.6-2,1.2-2.9c0.6-0.8,1.4-1.6,2.3-2.2
					c0.6-0.4,1.2-0.7,1.9-0.9C217.5,355.6,218.2,355.5,219,355.4L219,355.4z M228.1,365.6c-0.3-0.5-0.4-1.1-0.3-1.6
					c0.1-0.6,0.4-1,1-1.4c0.5-0.3,1.1-0.5,1.7-0.3c0.6,0.1,1,0.4,1.4,1c0.3,0.5,0.4,1.1,0.3,1.7c-0.1,0.6-0.4,1.1-1,1.4
					c-0.5,0.3-1.1,0.4-1.6,0.3C228.9,366.4,228.4,366.1,228.1,365.6L228.1,365.6z M235.5,355.8l3.6-2.4l-4.2-3.5
					c-0.1-0.1-0.3-0.3-0.6-0.5c-0.3-0.2-0.6-0.6-1-1c0.1,0.4,0.3,0.7,0.4,1.1c0.1,0.3,0.2,0.7,0.3,1L235.5,355.8L235.5,355.8z
					 M233.6,364.1l-4.1-16.4l4.6-3l13.3,10.3l-3.6,2.4l-2.2-2l-5.2,3.4l0.9,2.8L233.6,364.1L233.6,364.1z M247.4,353
					c-0.3-0.5-0.4-1.1-0.3-1.6c0.1-0.6,0.4-1,1-1.4c0.5-0.3,1.1-0.5,1.7-0.3c0.6,0.1,1,0.4,1.4,1c0.3,0.5,0.4,1.1,0.3,1.7
					c-0.1,0.6-0.4,1.1-1,1.4c-0.5,0.3-1.1,0.4-1.6,0.3C248.2,353.8,247.7,353.5,247.4,353L247.4,353z M258.5,336.4l0.7-0.5
					c0.9-0.6,1.5-1.1,1.7-1.5c0.2-0.4,0.1-0.9-0.2-1.4c-0.3-0.5-0.7-0.8-1.2-0.8c-0.4,0-1.1,0.3-2,0.9l-0.8,0.5L258.5,336.4
					L258.5,336.4z M260.4,346.6l-8.7-13.4l3.7-2.4c1.5-1,2.6-1.6,3.3-1.9c0.7-0.3,1.3-0.5,1.9-0.5c0.7,0,1.3,0.1,1.8,0.4
					c0.6,0.3,1,0.7,1.4,1.3c0.5,0.8,0.7,1.5,0.6,2.2c-0.1,0.7-0.5,1.4-1.2,2.2c1-0.5,2-0.7,2.9-0.5c0.9,0.2,1.7,0.9,2.4,1.9
					c0.5,0.7,0.7,1.4,0.8,2.2c0.1,0.7-0.1,1.4-0.5,2.1c-0.3,0.5-0.7,1.1-1.3,1.6c-0.6,0.5-1.7,1.3-3.2,2.3L260.4,346.6L260.4,346.6z
					 M262,341.7l1.3-0.8c0.9-0.6,1.4-1.1,1.6-1.5c0.2-0.4,0.2-0.9-0.2-1.4c-0.4-0.6-0.8-0.8-1.3-0.9c-0.5,0-1.2,0.3-2,0.9l-1.3,0.9
					L262,341.7L262,341.7z M273,338.4l-8.7-13.4l3.8-2.5c1.5-1,2.6-1.6,3.2-1.8c0.7-0.2,1.3-0.3,2-0.3c0.7,0.1,1.4,0.3,2,0.7
					c0.6,0.4,1.2,0.9,1.6,1.6c0.7,1,1,2,0.9,3c-0.1,1-0.5,1.9-1.4,2.7l7.1,3l-4.1,2.7l-6.5-3.2l3.4,5.2L273,338.4L273,338.4z
					 M271.9,329.1l0.7-0.4c0.8-0.5,1.3-1,1.5-1.5c0.2-0.5,0.1-1-0.3-1.6c-0.4-0.7-0.9-1-1.4-1.1c-0.5-0.1-1.2,0.2-2,0.7l-0.7,0.5
					L271.9,329.1L271.9,329.1z M285.3,323.3l3.6-2.4l-4.2-3.5c-0.1-0.1-0.3-0.3-0.6-0.5c-0.3-0.2-0.6-0.6-1-1
					c0.1,0.4,0.3,0.7,0.4,1.1c0.1,0.3,0.2,0.7,0.3,1L285.3,323.3L285.3,323.3z M283.5,331.6l-4.1-16.4l4.6-3l13.3,10.3l-3.6,2.4
					l-2.2-2l-5.2,3.4l0.9,2.8L283.5,331.6L283.5,331.6z M301.3,312.9l-1.8-2.8l7.2-4.7c0.1,0.1,0.1,0.2,0.2,0.3
					c0.1,0.1,0.2,0.3,0.3,0.5c1.5,2.3,2.1,4.5,1.7,6.5c-0.4,2.1-1.7,3.8-3.9,5.2c-1.1,0.7-2.2,1.2-3.2,1.4c-1.1,0.2-2.1,0.2-3.2,0
					c-1.1-0.2-2-0.7-3-1.3c-0.9-0.6-1.7-1.4-2.3-2.4c-0.7-1-1.1-2-1.3-3.1c-0.2-1.1-0.2-2.1,0.1-3.3c0.2-1.1,0.7-2.1,1.3-3
					c0.6-0.9,1.5-1.7,2.5-2.3c1.3-0.9,2.6-1.3,4-1.5c1.3-0.1,2.7,0.1,4,0.6l-2.2,3.6c-0.7-0.3-1.4-0.4-2-0.3
					c-0.6,0.1-1.2,0.3-1.8,0.7c-1.1,0.7-1.7,1.6-1.9,2.8c-0.1,1.1,0.2,2.3,1,3.6c0.8,1.3,1.8,2.1,2.9,2.4c1.1,0.3,2.2,0.1,3.3-0.6
					c0.9-0.6,1.5-1.3,1.9-2.2c0.3-0.9,0.3-1.7-0.1-2.5L301.3,312.9L301.3,312.9z M314.2,304.4l3.6-2.4l-4.2-3.5
					c-0.1-0.1-0.3-0.3-0.6-0.5c-0.3-0.2-0.6-0.6-1-1c0.1,0.4,0.3,0.7,0.4,1.1c0.1,0.3,0.2,0.7,0.3,1L314.2,304.4L314.2,304.4z
					 M312.4,312.7l-4.1-16.4l4.6-3l13.3,10.3l-3.6,2.4l-2.2-2l-5.2,3.4l0.9,2.8L312.4,312.7L312.4,312.7z M327.4,302.9l-8.7-13.4
					l3.5-2.3l9.5,3.6c0.2,0.1,0.5,0.3,1,0.5c0.5,0.3,1.1,0.6,1.7,1c-0.4-0.5-0.8-1-1.1-1.4c-0.3-0.4-0.6-0.8-0.8-1.1l-4.3-6.6
					l3.5-2.3l8.7,13.4l-3.5,2.3l-9.5-3.6c-0.2-0.1-0.5-0.2-1-0.5c-0.5-0.3-1.1-0.6-1.7-1c0.4,0.5,0.8,1,1.1,1.4
					c0.3,0.4,0.6,0.8,0.8,1.1l4.3,6.6L327.4,302.9L327.4,302.9z M345.3,291.2l-6.7-10.2l-3,2l-2.1-3.2l9.6-6.3l2.1,3.2l-3,2
					l6.7,10.2L345.3,291.2L345.3,291.2z M353.8,285.7l-8.7-13.4l3.7-2.4l8.7,13.4L353.8,285.7L353.8,285.7z M360.4,281.4l-8.7-13.4
					l3.5-2.3l9.5,3.6c0.2,0.1,0.5,0.3,1,0.5c0.5,0.3,1.1,0.6,1.7,1c-0.4-0.5-0.8-1-1.1-1.4c-0.3-0.4-0.6-0.8-0.8-1.1l-4.3-6.6
					l3.5-2.3l8.7,13.4l-3.5,2.3l-9.5-3.6c-0.2-0.1-0.5-0.2-1-0.5c-0.5-0.3-1.1-0.6-1.7-1c0.4,0.5,0.8,1,1.1,1.4
					c0.3,0.4,0.6,0.8,0.8,1.1l4.3,6.6L360.4,281.4L360.4,281.4z M385.7,255.4c0.6,1,1,2,1.2,3c0.2,1.1,0.2,2.2-0.1,3.3
					c-0.3,1.1-0.7,2.1-1.3,3c-0.6,0.9-1.4,1.7-2.4,2.3c-1,0.6-2,1-3.1,1.3c-1.1,0.2-2.2,0.2-3.3,0c-1.1-0.2-2.1-0.6-3-1.2
					c-0.9-0.6-1.7-1.4-2.3-2.3c-0.6-1-1-2-1.2-3c-0.2-1.1-0.2-2.2,0.1-3.3c0.2-1.1,0.7-2.1,1.3-3c0.6-0.9,1.4-1.7,2.4-2.3
					c0.9-0.6,2-1,3.1-1.3c1.1-0.2,2.2-0.2,3.3,0c1.1,0.2,2.1,0.6,3,1.3C384.3,253.7,385,254.4,385.7,255.4L385.7,255.4z M381.1,264
					c1-0.7,1.6-1.6,1.8-2.7c0.2-1.2-0.1-2.3-0.8-3.5c-0.7-1.1-1.7-1.8-2.8-2.1c-1.2-0.3-2.2-0.1-3.2,0.5c-1,0.7-1.6,1.6-1.8,2.8
					c-0.2,1.2,0.1,2.3,0.8,3.5c0.7,1.1,1.7,1.9,2.8,2.2C379,264.8,380.1,264.6,381.1,264L381.1,264z"/>
				<path class="st3" d="M246.1,260.1L246.1,260.1c7,0,13.3,2.8,17.9,7.4c4.8,4.8,7.4,11.2,7.4,17.9v0v0c0,7-2.8,13.3-7.4,17.9
					c-4.6,4.6-10.9,7.4-17.9,7.4h0h0c-7,0-13.3-2.8-17.9-7.4c-4.6-4.6-7.4-10.9-7.4-17.9v0v0c0-7,2.8-13.3,7.4-17.9
					C232.8,262.9,239.1,260.1,246.1,260.1L246.1,260.1L246.1,260.1z M268.9,281.1c-1.4,0.5-5.4,1.5-8.2,1.1
					c0.3,4.7,0.1,6.6,0.1,11.1c0,3.4,0,6.6,0.1,9.7c0.5-0.4,1-0.9,1.5-1.4c4.2-4.2,6.8-10,6.8-16.4v0v0
					C269.2,283.9,269.1,282.5,268.9,281.1L268.9,281.1z M260.3,303.7l-1.4,1.1c-0.1-2-0.1-5.1-0.2-7.2c-1.1,0.3-2.2,0.6-3.4,0.9
					c-1.2,0.2-2.4,0.4-3.6,0.6c-1.5,0.2-3,0.3-4.6,0.3l0.4,9.2C252.3,308.2,256.7,306.4,260.3,303.7L260.3,303.7z M245.4,308.5
					l-0.4-9.3c-4-0.1-8.7-0.7-12.4-1.7l0.3-2.4c5.6,1.5,12.7,2.4,18.6,1.8c1.2-0.1,2.3-0.3,3.4-0.5c1.1-0.2,2.2-0.5,3.3-0.9l0,0
					c0.1,0,0.1,0,0.2-0.1l0.4,1.1c0-1,0-2.1,0-3.1c0-1.6,0-3.3,0-5c-0.8,0.2-1.6,0.4-2.3,0.6c-1.2,0.2-2.4,0.4-3.6,0.6
					c-6.2,0.7-13.8,0.1-19.6-1.4l0-2.4c5.6,1.5,13.5,2.4,19.4,1.8c1.2-0.1,2.3-0.3,3.4-0.5c0.9-0.2,1.8-0.4,2.7-0.7
					c0-2.3-0.1-4.6-0.3-6.9c-7.7-0.7-16.6-0.6-24.3,0.1c-1.1,8-1.5,17.6-1.3,24.9l-2.1-1.6C234.7,306.2,239.8,308.4,245.4,308.5
					L245.4,308.5z M230.7,302.7c-0.2-7.2-0.1-12.5,1-20.4c-3,0.3-6.9-1.1-8.4-1.4l0.5-1.4c-0.5,1.9-0.8,3.9-0.8,5.9v0v0
					c0,6.4,2.6,12.2,6.8,16.4C230,302.1,230.3,302.4,230.7,302.7L230.7,302.7z M223.9,278.7c1.1,0.6,5,1.7,8.1,1.4
					c0.1-0.8,0.5-4.2,0.7-5c0.3-1.8,0.7-3.7,1.1-5.5c0.3-1.5,0.7-3,1.1-4.5c-1.9,1-3.6,2.4-5.1,3.9C227,271.7,225,275,223.9,278.7
					L223.9,278.7z M236.6,264.2l0.6,0.2l-0.1,0.3h0c-0.5,1.8-1,3.6-1.4,5.4c-0.4,1.8-0.8,3.6-1.1,5.4c-0.1,0.6-0.2,1.2-0.3,1.8
					c7.5-0.7,16.2-0.8,23.8-0.1c-0.4-4.4-1.2-8.8-2.6-12.9c-2.3-1-4.8-1.7-7.4-1.9v8.7H246v-8.8
					C242.6,262.2,239.5,262.9,236.6,264.2L236.6,264.2z M258.2,265.6c1.1,3.8,1.9,10.5,2.3,14.5c2.7,0.3,6.7-0.7,7.8-1.4
					c-1.1-3.8-3.2-7.1-5.8-9.8C261.2,267.7,259.7,266.6,258.2,265.6L258.2,265.6z M258.3,295.4C258.4,295.4,258.4,295.4,258.3,295.4
					L258.3,295.4L258.3,295.4z M258.3,295.4C258.3,295.4,258.3,295.4,258.3,295.4L258.3,295.4L258.3,295.4z"/>
				<path class="st8" d="M246.1,260.1L246.1,260.1c7,0,13.3,2.8,17.9,7.4c4.8,4.8,7.4,11.2,7.4,17.9v0v0c0,7-2.8,13.3-7.4,17.9
					c-4.6,4.6-10.9,7.4-17.9,7.4h0h0c-7,0-13.3-2.8-17.9-7.4c-4.6-4.6-7.4-10.9-7.4-17.9v0v0c0-7,2.8-13.3,7.4-17.9
					C232.8,262.9,239.1,260.1,246.1,260.1L246.1,260.1L246.1,260.1z M268.9,281.1c-1.4,0.5-5.4,1.5-8.2,1.1
					c0.3,4.7,0.1,6.6,0.1,11.1c0,3.4,0,6.6,0.1,9.7c0.5-0.4,1-0.9,1.5-1.4c4.2-4.2,6.8-10,6.8-16.4v0v0
					C269.2,283.9,269.1,282.5,268.9,281.1L268.9,281.1z M260.3,303.7l-1.4,1.1c-0.1-2-0.1-5.1-0.2-7.2c-1.1,0.3-2.2,0.6-3.4,0.9
					c-1.2,0.2-2.4,0.4-3.6,0.6c-1.5,0.2-3,0.3-4.6,0.3l0.4,9.2C252.3,308.2,256.7,306.4,260.3,303.7L260.3,303.7z M245.4,308.5
					l-0.4-9.3c-4-0.1-8.7-0.7-12.4-1.7l0.3-2.4c5.6,1.5,12.7,2.4,18.6,1.8c1.2-0.1,2.3-0.3,3.4-0.5c1.1-0.2,2.2-0.5,3.3-0.9l0,0
					c0.1,0,0.1,0,0.2-0.1l0.4,1.1c0-1,0-2.1,0-3.1c0-1.6,0-3.3,0-5c-0.8,0.2-1.6,0.4-2.3,0.6c-1.2,0.2-2.4,0.4-3.6,0.6
					c-6.2,0.7-13.8,0.1-19.6-1.4l0-2.4c5.6,1.5,13.5,2.4,19.4,1.8c1.2-0.1,2.3-0.3,3.4-0.5c0.9-0.2,1.8-0.4,2.7-0.7
					c0-2.3-0.1-4.6-0.3-6.9c-7.7-0.7-16.6-0.6-24.3,0.1c-1.1,8-1.5,17.6-1.3,24.9l-2.1-1.6C234.7,306.2,239.8,308.4,245.4,308.5
					L245.4,308.5z M230.7,302.7c-0.2-7.2-0.1-12.5,1-20.4c-3,0.3-6.9-1.1-8.4-1.4l0.5-1.4c-0.5,1.9-0.8,3.9-0.8,5.9v0v0
					c0,6.4,2.6,12.2,6.8,16.4C230,302.1,230.3,302.4,230.7,302.7L230.7,302.7z M223.9,278.7c1.1,0.6,5,1.7,8.1,1.4
					c0.1-0.8,0.5-4.2,0.7-5c0.3-1.8,0.7-3.7,1.1-5.5c0.3-1.5,0.7-3,1.1-4.5c-1.9,1-3.6,2.4-5.1,3.9C227,271.7,225,275,223.9,278.7
					L223.9,278.7z M236.6,264.2l0.6,0.2l-0.1,0.3h0c-0.5,1.8-1,3.6-1.4,5.4c-0.4,1.8-0.8,3.6-1.1,5.4c-0.1,0.6-0.2,1.2-0.3,1.8
					c7.5-0.7,16.2-0.8,23.8-0.1c-0.4-4.4-1.2-8.8-2.6-12.9c-2.3-1-4.8-1.7-7.4-1.9v8.7H246v-8.8
					C242.6,262.2,239.5,262.9,236.6,264.2L236.6,264.2z M258.2,265.6c1.1,3.8,1.9,10.5,2.3,14.5c2.7,0.3,6.7-0.7,7.8-1.4
					c-1.1-3.8-3.2-7.1-5.8-9.8C261.2,267.7,259.7,266.6,258.2,265.6L258.2,265.6z M258.3,295.4C258.4,295.4,258.4,295.4,258.3,295.4
					L258.3,295.4L258.3,295.4z M258.3,295.4C258.3,295.4,258.3,295.4,258.3,295.4L258.3,295.4L258.3,295.4z"/>
			</g>
			<g>
				<polygon class="st6" points="379.2,183.4 383.5,196.8 397.6,196.8 386.2,205.1 390.6,218.5 379.2,210.2 367.8,218.5 
					372.2,205.1 360.8,196.8 374.9,196.8 379.2,183.4 				"/>
				<polygon class="st6" points="220.8,183.4 225.1,196.8 239.2,196.8 227.8,205.1 232.2,218.5 220.8,210.2 209.4,218.5 
					213.8,205.1 202.4,196.8 216.5,196.8 220.8,183.4 				"/>
			</g>
			<text transform="matrix(1 0 0 1 317.7804 182.1395)" class="st3 st9 st10">1,5 cm</text>
			<g>
				<line class="st11" x1="239.2" y1="190.7" x2="281.6" y2="190.7"/>
				<line class="st11" x1="239.2" y1="180.8" x2="239.2" y2="200.2"/>
				<line class="st11" x1="281.6" y1="180.8" x2="281.6" y2="200.2"/>
			</g>
			<g>
				<line class="st11" x1="318.4" y1="190.7" x2="360.8" y2="190.7"/>
				<line class="st11" x1="318.4" y1="180.8" x2="318.4" y2="200.2"/>
				<line class="st11" x1="360.8" y1="180.8" x2="360.8" y2="200.2"/>
			</g>
			<text transform="matrix(1 0 0 1 238.0659 182.1395)" class="st3 st9 st10">1,5 cm</text>
			<text transform="matrix(1 0 0 1 389.5409 226.6412)" class="st3 st9 st12">0,35 cm</text>
			<text transform="matrix(1 0 0 1 304.0638 223.0188)" class="st3 st9 st10">0,85 cm</text>
			<path class="st13" d="M202.4,201.7l-9.3,0 M202.4,211.6v-19.4 M193.1,211.6v-19.4"/>
			<text transform="matrix(1 0 0 1 171.8347 190.2358)" class="st3 st9 st12">0,35 cm</text>
			<path class="st13" d="M406.9,201.9l-9.3,0 M406.9,211.9v-19.4 M397.6,211.9v-19.4"/>
			<text transform="matrix(1 0 0 1 398.7926 190.2358)" class="st3 st9 st12">0,35 cm</text>
			<path class="st13" d="M213,218.5l0,10.5 M216.3,218.5h-6.9 M216.3,228.9h-6.9"/>
			<text transform="matrix(1 0 0 1 181.4065 226.6412)" class="st3 st9 st12">0,35 cm</text>
			<line class="st14" x1="193.1" y1="208" x2="193.1" y2="370.4"/>
			<line class="st14" x1="406.9" y1="208" x2="406.9" y2="370.4"/>
			<line class="st14" x1="421.3" y1="228.9" x2="179.2" y2="228.9"/>
			<g>
				<line class="st15" x1="193.1" y1="360.2" x2="193.1" y2="457.7"/>
				<line class="st15" x1="406.9" y1="360.2" x2="406.9" y2="457.7"/>
			</g>
			<line class="st15" x1="406.9" y1="449.7" x2="193.1" y2="449.7"/>
			<text transform="matrix(1 0 0 1 275.725 441.4628)" class="st3 st9 st10">7,5 cm</text>
			<g>
				<line class="st15" x1="295.9" y1="426.9" x2="443.9" y2="426.9"/>
				<line class="st15" x1="297" y1="228.9" x2="443.9" y2="228.9"/>
			</g>
			<line class="st15" x1="436" y1="228.9" x2="436" y2="426.9"/>
			<path class="st13" d="M387.4,218.5l0,10.5 M390.7,218.5h-6.9 M390.7,228.9h-6.9"/>
			<text transform="matrix(0 -1 1 0 429.3365 349.458)" class="st3 st9 st10">7,0 cm</text>
			<path class="st13" d="M300,205.1l0,23.9 M309.9,205.1h-19.4 M309.9,228.9h-19.4"/>
		</g>
	</g>
</g>
</svg>
