<?xml version="1.0" encoding="utf-8"?>
<!-- Generator: Adobe Illustrator 23.0.1, SVG Export Plug-In . SVG Version: 6.00 Build 0)  -->
<svg version="1.1" id="Layer_1" xmlns="http://www.w3.org/2000/svg" xmlns:xlink="http://www.w3.org/1999/xlink" x="0px" y="0px"
	 viewBox="0 0 566.93 566.93" style="enable-background:new 0 0 566.93 566.93;" xml:space="preserve">
<style type="text/css">
	.st0{fill:#231F20;}
	.st1{fill:#CE181E;}
</style>
<g>
	<polygon class="st0" points="134.96,468.31 491.84,174.88 491.84,99.6 89.19,430.67 	"/>
	<polygon class="st1" points="449.02,226.99 449.02,302.29 191.02,514.42 145.24,476.78 	"/>
	<polygon class="st1" points="491.84,82.69 491.84,5.44 87.96,337.48 87.96,414.78 	"/>
	<polygon class="st0" points="201.3,522.87 248.28,561.49 408.61,429.67 408.61,352.41 	"/>
	<path class="st0" d="M237.79,94.69v49.23l-2.11,1.74V92.96l2.11,1.64V94.69z M109.24,95.54l-2.12-1.68v81.59l2.12,1.73V95.54z
		 M121.96,104.83l20.08-16.51l1.58,1.29l-20.08,16.51L121.96,104.83z M200.28,91.01l2.13,1.7v79.38l-2.13,1.75V91.01z M87.33,125.39
		l-12.24,10.08l1.55-3.87l15.62-12.86L87.33,125.39z M164.11,95.52v47.69l-2.1,1.74V93.78L164.11,95.52z M276.18,92.36v43.55
		l-38.4,31.58v27.57L215.1,213.7v-2.6l20.58-16.89v-27.58l38.38-31.58V90.67L276.18,92.36z M215.19,186.09l-35.83,29.49v-2.6
		l40.98-33.73L215.19,186.09z M176.58,159.42l-12.47,10.26v27.03l-23.03,18.86v-2.6l20.93-17.13v-27.03l14.57-11.99V159.42z
		 M214.66,190.68l19.35-25.71v27.58l-19.35,15.89V190.68z M140.64,191.14l19.69-23.99v27.05l-19.69,16.11V191.14z M253.03,73.84
		l-38.37,31.57v59.6l-16.05,13.23V89.68l-19.69-15.84l-38.27,31.47v60.21l-24.63,20.23l-10.56-8.65v-72.23L86.15,130.9v61.65
		l21.69,17.77l71.08-58.43v58.43l93.49-76.93V89.33L253.03,73.84z M234.02,89.55l18.64,14.5v29.83l-18.64,15.3V89.55z M160.33,89.68
		h0.38l18.2,15.06v29.33l-18.58,15.26V89.68z M105.46,89.55v15.32l-19.31,15.88l-9.22,7.57l9.22-23.05l38.23-31.42l15.82,12.97
		l-18.79,15.43L105.46,89.55z M143.74,183.9l-33.96,28.02l1.58,1.29l25.54-21L143.74,183.9z"/>
</g>
</svg>
