<?xml version="1.0" encoding="utf-8"?>
<!-- Generator: Adobe Illustrator 16.0.0, SVG Export Plug-In . SVG Version: 6.00 Build 0)  -->
<svg version="1.1" id="Layer_2" xmlns="http://www.w3.org/2000/svg" xmlns:xlink="http://www.w3.org/1999/xlink" x="0px" y="0px"
	 width="381.506px" height="381.507px" viewBox="0 0 381.506 381.507" enable-background="new 0 0 381.506 381.507"
	 xml:space="preserve">
<path fill-rule="evenodd" clip-rule="evenodd" fill="#006437" d="M190.752,0c105.351,0,190.754,85.404,190.754,190.756
	c0,105.348-85.403,190.751-190.754,190.751C85.403,381.507,0,296.104,0,190.756C0,85.404,85.403,0,190.752,0L190.752,0z
	 M190.752,4.917c102.64,0,185.838,83.203,185.838,185.839c0,102.637-83.198,185.84-185.838,185.84
	c-102.632,0-185.835-83.203-185.835-185.84C4.917,88.12,88.12,4.917,190.752,4.917L190.752,4.917z"/>
<path fill-rule="evenodd" clip-rule="evenodd" fill="#006437" d="M190.752,10.256c99.689,0,180.501,80.812,180.501,180.5
	c0,99.687-80.812,180.498-180.501,180.498c-99.687,0-180.499-80.812-180.499-180.498C10.253,91.068,91.065,10.256,190.752,10.256
	L190.752,10.256z M190.752,27.061c54.534,0,98.737,44.208,98.737,98.739c0,54.531-44.203,98.74-98.737,98.74
	c-54.532,0-98.735-44.209-98.735-98.74C92.017,71.27,136.22,27.061,190.752,27.061L190.752,27.061z M89.961,167.887
	c1.439,3.761,5.705,11.973,7.456,14.689c4.309,6.597,1.454,14.104-6.576,18.216l-16.448,8.388
	c-7.847,3.912-22.721,2.166-25.532-8.359c-1.258-3.587-1.836-6.437-2.688-10.277l-23.52,6.557
	c-0.555-8.515-0.631-9.998-0.125-17.245L89.961,167.887L89.961,167.887z M82.801,180.58l-22.654,6.157
	c0.272,1.987,0.626,3.475,1.225,5.462c1.64,5.428,4.185,5.342,10.56,3.017l8.288-3.096c3.318-1.48,6.633-2.97,4.887-6.758
	C83.973,183.3,82.801,180.477,82.801,180.58L82.801,180.58z M111.452,201.159c2.588,2.703,5.787,5.735,8.943,8.413l-63.08,84.136
	c-4.037-5.275-8.202-11.502-11.63-17.288l17.675-19.072c-3.897-5.868-7.346-10.852-10.531-18.336l-20.444,9.006
	c-2.271-5.935-4.194-12.516-5.141-17.068L111.452,201.159L111.452,201.159z M97.541,220.098L65.58,233.432
	c2.4,4.705,4.71,8.373,7.92,12.63L97.541,220.098L97.541,220.098z M59.597,296.511l71.525-78.938
	c-0.272-0.067,6.466,4.089,9.703,5.733l-55.236,73.246c5.777,5.734,7.968,7.547,15.007,12.841l-10.015,17.011
	C80.08,318.849,66.302,305.42,59.597,296.511L59.597,296.511z M94.872,329.461l55.407-101.841c3.252,1.354,6.954,2.54,10.249,3.521
	l-6.077,52.452c1.653-3.797,20.567-49.139,20.567-49.33c2.889,0.465,8.384,0.962,10.794,1.067l-7.445,123.795
	c-6.347-0.177-16.131-1.645-23.051-3.285l10.572-62.476L139.3,336.036l-0.675-51.889c-2.2,6.581-24.18,56.896-24.18,57.082
	C106.579,337.203,100.147,333.182,94.872,329.461L94.872,329.461z M211.79,233.47c-7.531,1.334-11.851,1.898-21.692,1.975
	l-2.549,124.116c19.35,0.517,39.033-2.645,55.709-8.201l-5.552-20.977c-8.929,2.865-17.642,4.988-26.316,5.772l-4.922-42.39
	c8.977-0.961,13.873-2.043,20.277-4.128l-4.262-15.791c-5.968,1.722-11.684,2.64-17.933,3.353l-3.463-29.957
	c4.677-0.139,9.569-0.952,13.883-2.047L211.79,233.47L211.79,233.47z M215.43,232.724c3.749-0.885,6.202-1.554,9.737-2.727
	l48.087,108.277c-6.515,3.567-14.511,7.509-22.569,10.521L215.43,232.724L215.43,232.724z M280.527,333.894l-51.507-105.277
	c6.615-2.421,12.21-5.186,17.815-8.494c7.088-4.562,12.998,0.062,18.947,5.557l15.051,13.998
	c14.266,13.271,11.678,23.17,8.521,26.355l37.436,24.591c-4.055,5.604-8.049,10.521-12.558,15.188l-36.538-29.516l-4.261,2.889
	l27.265,39.879C294.788,324.253,287.299,329.695,280.527,333.894L280.527,333.894z M265.54,266.636
	c7.086-4.601,11.376-8.226,2.63-18.47l-9.761-12.319c-5.954-8.136-9.431-3.74-13.893-1.684L265.54,266.636L265.54,266.636z
	 M271.919,199.653c-2.521,2.641-5.112,5.391-8.106,7.986l64.472,80.927c3.868-5.299,7.838-11.649,11.162-17.569l-17.633-17.604
	c3.787-6.159,5.446-9.674,8.545-16.872l20.062,8.747c2.252-5.819,3.993-11.144,5.208-16.747L271.919,199.653L271.919,199.653z
	 M287.835,218.664l29.679,12.17c-2.3,4.621-3.439,6.973-6.609,11.722L287.835,218.664L287.835,218.664z M306.543,181.612
	c1.474-3.182,2.773-6.494,4.031-9.935c-3.447-0.608-6.221-1.098-8.904-1.572c-6.504-1.042-10.794,1.096-12.908,3.955
	c-2.113,2.858-3.434,5.55-4.974,9.445c-1.535,3.896-1.439,11.021,9.537,15.918c9.56,4.41,16.728,8.814,31.898-4.132
	c8.89-7.157,12.271-4.736,15.522-4.062c4.653,1.562,5.141,3.446,4.228,8.328c-1.219,6.036-8.04,2.836-11.315,1.544
	c-1.257,4.807-2.573,8.489-4.69,13.664c1.979,0.833,4.452,1.962,6.681,2.894c10.109,4.051,21.516,1.851,24.159-10.383
	c1.589-8.226,1.105-12.224,1.105-13.653c-0.144-7.604-5.738-14.362-15.418-16.105c-9.445-1.896-15.754-2.415-28.962,7.523
	c-6.776,5.028-7.905,6.922-14.05,4.484c-3.271-1.242-6.408-2.344-4.583-6.179C299.302,180.402,300.757,179.907,306.543,181.612
	L306.543,181.612z M97.139,55.691l-2.205,5.119l3.76,4.099l-5.519-0.528l-2.718,4.866l-1.205-5.447l-5.438-1.091l4.777-2.835
	l-0.649-5.541l4.161,3.692L97.139,55.691L97.139,55.691z M80.913,73.873l-1.531,6.705l5.48,4.118l-6.815,0.609l-2.195,6.514
	l-2.682-6.327l-6.839-0.091l5.155-4.521l-2.027-6.569l5.869,3.535L80.913,73.873L80.913,73.873z M67.024,97.161l-0.096,8.869
	l8.025,3.675l-8.417,2.646l-0.995,8.812l-5.102-7.231l-8.643,1.772l5.261-7.119l-4.343-7.719l8.355,2.836L67.024,97.161
	L67.024,97.161z M57.082,126.962l2.683,11.009l11.099,1.982l-9.584,5.969l1.56,11.229l-8.608-7.322l-10.134,4.957l4.261-10.495
	l-7.819-8.164l11.239,0.834L57.082,126.962L57.082,126.962z M324.396,126.962l-2.684,11.009l-11.099,1.982l9.584,5.969l-1.56,11.229
	l8.607-7.322l10.134,4.957l-4.261-10.495l7.819-8.164l-11.239,0.834L324.396,126.962L324.396,126.962z M314.453,97.161l0.096,8.869
	l-8.025,3.675l8.417,2.646l0.995,8.812l5.103-7.231l8.642,1.772l-5.266-7.119l4.348-7.719l-8.355,2.836L314.453,97.161
	L314.453,97.161z M300.564,73.873l1.531,6.705l-5.481,4.118l6.811,0.609l2.2,6.514l2.684-6.327l6.837-0.091l-5.154-4.521
	l2.027-6.569l-5.867,3.535L300.564,73.873L300.564,73.873z M284.334,55.691l2.21,5.119l-3.765,4.099l5.524-0.528l2.716,4.866
	l1.205-5.447l5.438-1.091l-4.777-2.835l0.649-5.541l-4.159,3.692L284.334,55.691L284.334,55.691z"/>
<path fill-rule="evenodd" clip-rule="evenodd" fill="#006437" d="M190.743,32.116c51.74,0,93.687,41.943,93.687,93.684
	c0,51.743-41.946,93.687-93.687,93.687c-51.739,0-93.686-41.944-93.686-93.687C97.058,74.06,139.004,32.116,190.743,32.116
	L190.743,32.116z M265.653,73.457c1.33,54.951-25.819,111.263-73.298,144.044c49.793-0.86,89.893-41.486,89.893-91.486
	C282.248,106.453,276.108,88.33,265.653,73.457L265.653,73.457z M189.185,217.501c-46.404-32.313-74.566-89.504-73.285-144.135
	c-10.497,14.89-16.661,33.048-16.661,52.649C99.238,176.029,139.366,216.669,189.185,217.501L189.185,217.501z M117.076,71.736
	c21.63-5.064,48.178-16.215,72.553-37.212C159.869,34.878,133.532,49.436,117.076,71.736L117.076,71.736z M191.838,34.524
	c23.449,21.052,50.244,31.913,72.554,37.18C247.926,49.417,221.59,34.873,191.838,34.524L191.838,34.524z M263.837,73.388
	c-42.84-10.043-68.985-33.244-73.074-37.367c-3.993,4.084-31.004,27.623-72.955,37.367c-0.832,91.704,66.977,138.834,72.955,142.86
	C196.711,212.269,264.435,166.803,263.837,73.388L263.837,73.388z"/>
<path fill="#006437" d="M257.969,76.781c1.645,50.566-24.327,103.238-67.206,132.925c-41.859-29.21-68.775-82.685-67.191-132.918
	c19.443-4.524,45.163-14.507,67.187-34.371C211.92,62.352,237.893,72.061,257.969,76.781L257.969,76.781z M184.861,49.907h11.654
	c-2.97-2.356-4.912-4.156-5.753-5.029C189.94,45.741,187.932,47.544,184.861,49.907L184.861,49.907z M197.467,50.655h-13.586
	c-2.1,1.583-4.63,3.384-7.557,5.301h28.517C201.972,54.039,199.51,52.238,197.467,50.655L197.467,50.655z M205.976,56.705h-30.804
	c-2.668,1.715-5.644,3.515-8.899,5.328h19.287c-0.492,0.237-0.984,0.488-1.468,0.748h-19.179c-3.275,1.782-6.813,3.57-10.602,5.296
	h22.252c-0.277,0.249-0.55,0.5-0.817,0.749h-23.104c-4.257,1.889-8.809,3.694-13.63,5.33h17.7c-0.24,0.237-0.47,0.488-0.698,0.746
	h-19.26c-3.663,1.184-7.474,2.265-11.42,3.208c0,0.703,0.006,1.4,0.01,2.094h37.604c0.205,0.231,0.392,0.48,0.55,0.748h-38.145
	c0.029,1.794,0.085,3.57,0.168,5.328h38.664v0.749h-38.626c0.096,1.787,0.22,3.551,0.368,5.299h38.258v0.749H125.99
	c0.163,1.796,0.354,3.575,0.569,5.328h37.627v0.748h-37.531c0.229,1.789,0.487,3.556,0.771,5.302h36.761v0.748H127.55
	c0.307,1.798,0.637,3.572,0.994,5.328h33.777h2.11h0.281l-0.761,0.749h-0.479h-1.951h-32.825c0.367,1.762,0.761,3.5,1.181,5.215
	h32.171l0.794,0.749h-32.777c0.458,1.832,0.947,3.638,1.458,5.412h32.663v0.746h-32.443c0.531,1.798,1.086,3.563,1.664,5.301h30.779
	v0.749h-30.524c0.611,1.808,1.252,3.582,1.917,5.328h28.607v0.749h-28.32c0.697,1.801,1.421,3.567,2.162,5.299h26.158v0.748h-25.834
	c0.79,1.812,1.602,3.589,2.438,5.328h23.396v0.749h-23.031c0.88,1.808,1.784,3.575,2.702,5.301h20.329v0.746h-19.928
	c0.962,1.772,1.938,3.5,2.932,5.184h16.996c-0.004,0.256-0.009,0.504-0.023,0.749h-16.527c1.08,1.817,2.186,3.584,3.3,5.299h11.372
	c-0.221,0.27-0.455,0.519-0.708,0.746h-10.177c1.205,1.839,2.424,3.616,3.654,5.33h4.557c0.278,0.268,0.556,0.519,0.837,0.749
	h-4.858c1.329,1.837,2.658,3.601,3.993,5.299h11.501c0.106,0.253,0.216,0.502,0.335,0.749h-11.248
	c1.482,1.863,2.956,3.639,4.415,5.328h10.698c0.276,0.26,0.56,0.509,0.846,0.748h-10.895c1.641,1.877,3.257,3.644,4.835,5.299
	h41.482c1.593-1.652,3.223-3.419,4.879-5.299h-26.725c-0.315-0.244-0.622-0.492-0.918-0.748h28.297
	c1.468-1.686,2.95-3.463,4.442-5.328h-37.02c-0.135-0.246-0.263-0.495-0.388-0.749h38c1.34-1.695,2.679-3.46,4.013-5.299h-43.877
	c-0.063-0.249-0.115-0.497-0.168-0.749h44.586c1.229-1.714,2.453-3.491,3.663-5.33h-48.999c-0.02-0.246-0.04-0.495-0.058-0.746
	h49.55c1.114-1.714,2.214-3.482,3.3-5.299h-53.013c0.004-0.249,0.004-0.5,0.004-0.749h53.453c0.995-1.684,1.971-3.412,2.927-5.184
	H181.15v-0.746h56.776c0.918-1.727,1.816-3.493,2.696-5.301H181.15v-0.749h59.831c0.833-1.738,1.646-3.512,2.43-5.328H181.15v-0.748
	h62.581c0.741-1.731,1.454-3.498,2.146-5.299h-35.977c0.411-0.134,0.822-0.272,1.243-0.426c0.277-0.101,0.546-0.215,0.813-0.323
	h34.203c0.66-1.743,1.297-3.52,1.903-5.328h-27.642c0.268-0.244,0.536-0.492,0.794-0.749h27.096
	c0.574-1.736,1.124-3.503,1.646-5.301h-24.399c0.163-0.246,0.33-0.492,0.493-0.746h24.122c0.507-1.774,0.99-3.58,1.439-5.412h-22.76
	c0.105-0.246,0.201-0.497,0.303-0.749h22.639c0.415-1.714,0.803-3.453,1.167-5.215h-22.091c0.068-0.249,0.125-0.5,0.188-0.749
	h22.052c0.354-1.753,0.674-3.529,0.97-5.328h-22.051c0.028-0.25,0.062-0.5,0.092-0.748H254.2c0.282-1.746,0.531-3.511,0.755-5.302
	h-22.553c0-0.249,0.005-0.497,0-0.748h22.645c0.21-1.753,0.392-3.529,0.55-5.328h-23.567c-0.029-0.248-0.067-0.5-0.102-0.749h23.73
	c0.145-1.746,0.259-3.512,0.345-5.299h-25.132c-0.062-0.251-0.133-0.5-0.205-0.749h25.375c0.077-1.755,0.13-3.534,0.153-5.328
	h-27.394c-0.11-0.25-0.22-0.5-0.334-0.748h27.732c0.01-0.694,0.01-1.392,0.004-2.094c-4.051-0.95-7.938-2.031-11.654-3.208h-18.98
	c-0.162-0.25-0.335-0.497-0.507-0.746h17.183c-4.935-1.643-9.55-3.446-13.83-5.33h-7.877c-0.268-0.254-0.545-0.5-0.822-0.749h7.021
	c-3.821-1.729-7.36-3.517-10.617-5.296h-4.49c-0.568-0.265-1.158-0.514-1.75-0.748h4.892
	C211.532,60.218,208.596,58.419,205.976,56.705L205.976,56.705z M185.56,62.032h2.047c-0.541,0.227-1.067,0.476-1.589,0.748h-1.926
	C184.575,62.52,185.067,62.269,185.56,62.032L185.56,62.032z M176.563,68.077h2.157c-0.272,0.249-0.535,0.498-0.804,0.749h-2.171
	C176.014,68.577,176.286,68.325,176.563,68.077L176.563,68.077z M156.713,74.155h1.233c-0.226,0.237-0.445,0.485-0.665,0.746h-1.267
	C156.243,74.643,156.473,74.392,156.713,74.155L156.713,74.155z M162.949,80.203h1.602c0.072,0.237,0.119,0.486,0.153,0.748h-1.205
	C163.341,80.683,163.154,80.434,162.949,80.203L162.949,80.203z M164.187,86.278h0.541v0.749h-0.541V86.278L164.187,86.278z
	 M164.187,92.326h0.531l-0.005,0.749h-0.526V92.326L164.187,92.326z M164.187,98.402h0.518l-0.006,0.748h-0.512V98.402
	L164.187,98.402z M164.187,104.452h0.503v0.748h-0.503V104.452L164.187,104.452z M162.049,116.491h1.101l0.66,0.749h-0.967
	L162.049,116.491L162.049,116.491z M164.187,122.651h0.518v0.746h-0.518V122.651L164.187,122.651z M164.187,128.698h0.507v0.749
	h-0.507V128.698L164.187,128.698z M164.187,134.774h0.498v0.749h-0.498V134.774L164.187,134.774z M164.187,140.821h0.488v0.748
	h-0.488V140.821L164.187,140.821z M164.187,146.897h0.479v0.749h-0.479V146.897L164.187,146.897z M164.187,152.947h0.469v0.746
	h-0.469V152.947L164.187,152.947z M164.187,158.877h0.46v0.749h-0.483C164.178,159.381,164.183,159.133,164.187,158.877
	L164.187,158.877z M162.308,164.924h2.19c-0.034,0.201-0.072,0.389-0.115,0.569c-0.043,0.058-0.086,0.12-0.124,0.177H161.6
	C161.853,165.443,162.087,165.194,162.308,164.924L162.308,164.924z M159.634,171h1.65c0.383,0.261,0.774,0.512,1.182,0.749h-1.995
	C160.189,171.519,159.912,171.268,159.634,171L159.634,171z M171.106,177.047h1.636c0.106,0.246,0.226,0.495,0.35,0.749h-1.65
	C171.322,177.55,171.213,177.301,171.106,177.047L171.106,177.047z M175.307,183.124h1.625c0.269,0.256,0.541,0.507,0.828,0.748
	h-1.607C175.866,183.633,175.583,183.384,175.307,183.124L175.307,183.124z M189.729,183.872h-1.999
	c-0.268-0.241-0.526-0.492-0.774-0.748h1.855C189.107,183.379,189.414,183.627,189.729,183.872L189.729,183.872z M184.531,177.796
	h-1.287c-0.124-0.246-0.243-0.498-0.362-0.749h1.262C184.269,177.301,184.396,177.55,184.531,177.796L184.531,177.796z
	 M182.279,171.749h-1.315c-0.067-0.25-0.13-0.5-0.192-0.749h1.34C182.164,171.251,182.216,171.5,182.279,171.749L182.279,171.749z
	 M181.361,165.67h-1.508l-0.015-0.107l0.006-0.638h1.459C181.321,165.175,181.342,165.424,181.361,165.67L181.361,165.67z
	 M181.141,159.625h-1.287v-0.749h1.291C181.145,159.126,181.145,159.376,181.141,159.625L181.141,159.625z M181.15,153.693h-1.286
	v-0.746h1.286V153.693L181.15,153.693z M181.15,147.646h-1.277v-0.749h1.277V147.646L181.15,147.646z M181.15,141.569h-1.268
	l0.005-0.748h1.263V141.569L181.15,141.569z M209.901,135.522h-6.068c1.459-0.098,2.993-0.342,4.601-0.749h3.524
	c-0.268,0.107-0.536,0.222-0.813,0.323C210.724,135.25,210.312,135.389,209.901,135.522L209.901,135.522z M220.423,129.446h-1.11
	c0.292-0.242,0.584-0.492,0.871-0.749h1.033C220.959,128.954,220.69,129.202,220.423,129.446L220.423,129.446z M225.559,123.396
	h-0.731c0.168-0.244,0.334-0.495,0.502-0.746h0.723C225.889,122.904,225.722,123.15,225.559,123.396L225.559,123.396z
	 M228.854,117.239h-0.612c0.105-0.248,0.221-0.495,0.325-0.749h0.59C229.055,116.742,228.959,116.993,228.854,117.239
	L228.854,117.239z M230.871,111.276h-0.539c0.066-0.251,0.139-0.5,0.2-0.749h0.526C230.996,110.776,230.939,111.027,230.871,111.276
	L230.871,111.276z M232.029,105.2h-0.479c0.034-0.25,0.072-0.5,0.105-0.748h0.465C232.092,104.7,232.058,104.949,232.029,105.2
	L232.029,105.2z M232.402,99.15h-0.416c0.005-0.249,0.005-0.497,0.005-0.748h0.411C232.407,98.653,232.402,98.901,232.402,99.15
	L232.402,99.15z M232.029,93.074h-0.349c-0.034-0.248-0.068-0.5-0.096-0.749h0.343C231.962,92.574,232,92.826,232.029,93.074
	L232.029,93.074z M230.871,87.027h-0.29c-0.063-0.251-0.136-0.5-0.202-0.749h0.287C230.738,86.527,230.81,86.776,230.871,87.027
	L230.871,87.027z M228.801,80.951h-0.238c-0.106-0.25-0.226-0.5-0.335-0.748h0.239C228.581,80.451,228.69,80.7,228.801,80.951
	L228.801,80.951z M225.568,74.901h-0.234c-0.162-0.248-0.324-0.501-0.497-0.746h0.225C225.233,74.404,225.406,74.65,225.568,74.901
	L225.568,74.901z M220.537,68.826h-0.354c-0.272-0.251-0.556-0.502-0.842-0.749h0.373C219.992,68.325,220.27,68.572,220.537,68.826
	L220.537,68.826z M211.628,62.78h-1.22c-0.698-0.27-1.415-0.523-2.147-0.748h1.617C210.47,62.267,211.06,62.515,211.628,62.78
	L211.628,62.78z M179.916,122.651h1.239v0.746h-1.239V122.651L179.916,122.651z M181.155,122.651h2.841
	c0.038,0.249,0.081,0.5,0.128,0.746h-2.969V122.651L181.155,122.651z M183.996,122.651h1.022c0.058,0.249,0.125,0.5,0.196,0.746
	h-1.091C184.077,123.15,184.034,122.899,183.996,122.651L183.996,122.651z M179.906,128.698h1.249v0.749h-1.249V128.698
	L179.906,128.698z M181.155,128.698h4.892c0.144,0.253,0.292,0.502,0.445,0.749h-5.337V128.698L181.155,128.698z M186.047,128.698
	h1.836c0.196,0.253,0.398,0.502,0.604,0.749h-1.994C186.339,129.2,186.19,128.951,186.047,128.698L186.047,128.698z
	 M179.896,134.774h1.254v0.749h-1.254V134.774L179.896,134.774z M181.15,134.774h10.837c0.468,0.271,0.951,0.521,1.458,0.749H181.15
	V134.774L181.15,134.774z M191.987,134.774h4.686c1.297,0.39,2.688,0.646,4.172,0.749h-7.399
	C192.938,135.295,192.455,135.044,191.987,134.774L191.987,134.774z M185.453,74.155h1.23c-0.244,0.242-0.475,0.493-0.694,0.746
	h-1.214C184.995,74.65,185.221,74.399,185.453,74.155L185.453,74.155z M186.684,74.155H208.3c0.253,0.242,0.502,0.493,0.741,0.746
	h-23.052C186.209,74.648,186.439,74.397,186.684,74.155L186.684,74.155z M208.3,74.155h1.721c0.211,0.244,0.417,0.493,0.613,0.746
	h-1.593C208.802,74.648,208.553,74.397,208.3,74.155L208.3,74.155z M181.494,80.203h1.272c-0.1,0.249-0.201,0.498-0.292,0.748
	h-1.281C181.289,80.7,181.39,80.451,181.494,80.203L181.494,80.203z M182.767,80.203h29.822c0.115,0.246,0.226,0.498,0.33,0.748
	h-30.444C182.565,80.7,182.667,80.451,182.767,80.203L182.767,80.203z M212.589,80.203h1.144c0.104,0.249,0.205,0.498,0.301,0.748
	h-1.114C212.814,80.7,212.704,80.449,212.589,80.203L212.589,80.203z M180.012,86.278h1.234c-0.024,0.253-0.044,0.5-0.058,0.749
	h-1.205C179.988,86.778,179.998,86.532,180.012,86.278L180.012,86.278z M181.246,86.278h33.045c0.029,0.249,0.053,0.5,0.067,0.749
	h-33.17C181.202,86.778,181.222,86.532,181.246,86.278L181.246,86.278z M214.291,86.278h1.066c0.029,0.249,0.054,0.5,0.072,0.749
	h-1.071C214.344,86.778,214.32,86.527,214.291,86.278L214.291,86.278z M179.974,92.326h1.182v0.749h-1.187L179.974,92.326
	L179.974,92.326z M181.155,92.326h32.734c-0.067,0.251-0.143,0.5-0.22,0.749h-32.515V92.326L181.155,92.326z M213.89,92.326h1.195
	c-0.058,0.251-0.119,0.502-0.191,0.749h-1.224C213.747,92.826,213.822,92.577,213.89,92.326L213.89,92.326z M179.96,98.402h1.195
	v0.748h-1.195V98.402L179.96,98.402z M181.155,98.402h29.363c-0.049,0.053-0.096,0.105-0.148,0.155
	c0.114,0.199,0.221,0.397,0.325,0.593h-29.54V98.402L181.155,98.402z M210.519,98.402h1.521c-0.067,0.079-0.134,0.158-0.206,0.234
	c0.087,0.172,0.163,0.342,0.244,0.514h-1.382c-0.104-0.196-0.211-0.394-0.325-0.593C210.423,98.507,210.47,98.455,210.519,98.402
	L210.519,98.402z M179.949,104.452h1.206v0.748h-1.206V104.452L179.949,104.452z M181.155,104.452h31.894
	c0.081,0.249,0.166,0.5,0.243,0.748h-32.137V104.452L181.155,104.452z M213.049,104.452h1.104c0.077,0.249,0.148,0.5,0.217,0.748
	h-1.077C213.215,104.951,213.13,104.7,213.049,104.452L213.049,104.452z M179.94,110.527h1.215v0.749h-1.215V110.527L179.94,110.527
	z M181.155,110.527h6.753c-0.293,0.232-0.57,0.483-0.828,0.749h-5.925V110.527L181.155,110.527z M187.908,110.527h2.707
	c-0.57,0.208-1.092,0.462-1.574,0.749h-1.961C187.338,111.01,187.615,110.759,187.908,110.527L187.908,110.527z M197.176,110.527
	h2.832c0.262,0.234,0.501,0.483,0.727,0.749h-2.301C198.051,110.994,197.631,110.743,197.176,110.527L197.176,110.527z
	 M200.008,110.527h14.293c0.02,0.251,0.034,0.5,0.043,0.749h-13.609C200.509,111.01,200.27,110.762,200.008,110.527L200.008,110.527
	z M214.301,110.527h1.053c0.019,0.251,0.033,0.5,0.047,0.749h-1.057C214.335,111.027,214.32,110.778,214.301,110.527
	L214.301,110.527z M179.931,116.491h1.225v0.749h-1.229L179.931,116.491L179.931,116.491z M181.155,116.491h3.104
	c-0.062,0.249-0.115,0.495-0.167,0.749h-2.937V116.491L181.155,116.491z M184.259,116.491h0.809
	c-0.072,0.247-0.135,0.495-0.188,0.749h-0.788C184.144,116.986,184.196,116.74,184.259,116.491L184.259,116.491z M201.71,116.491
	h0.999c0.015,0.251,0.019,0.5,0.015,0.749h-0.895C201.801,116.991,201.763,116.742,201.71,116.491L201.71,116.491z M202.709,116.491
	h11.09c-0.062,0.253-0.134,0.502-0.205,0.749h-10.87C202.728,116.991,202.724,116.742,202.709,116.491L202.709,116.491z
	 M213.799,116.491h1.32c-0.043,0.253-0.092,0.502-0.148,0.749h-1.377C213.665,116.993,213.736,116.744,213.799,116.491
	L213.799,116.491z M200.231,122.651h0.775c-0.202,0.268-0.417,0.517-0.651,0.746h-1.406
	C199.438,123.239,199.863,122.98,200.231,122.651L200.231,122.651z M201.007,122.651h9.804c-0.202,0.256-0.407,0.505-0.622,0.746
	h-9.833C200.59,123.167,200.805,122.918,201.007,122.651L201.007,122.651z M210.811,122.651h2.138
	c-0.145,0.253-0.292,0.505-0.445,0.746h-2.314C210.403,123.156,210.608,122.907,210.811,122.651L210.811,122.651z M210.854,189.919
	h-40.043c1.812,1.879,3.567,3.613,5.237,5.191h29.521C207.247,193.535,209.021,191.801,210.854,189.919L210.854,189.919z
	 M204.76,195.856h-27.918c2.18,2.037,4.198,3.807,5.991,5.299h15.883C200.519,199.663,202.562,197.894,204.76,195.856
	L204.76,195.856z M197.808,201.906h-14.071c3.544,2.907,6.084,4.677,7.06,5.293C191.695,206.583,194.226,204.818,197.808,201.906
	L197.808,201.906z M157.439,76.008c3.515-0.125,8.56,2.411,8.56,7.549v25.705l-4.447,4.374l4.447,4.111v41.527
	c0,2.905-0.66,7.467-5.82,9.445c3.755,4.541,7.288,3.713,11.354,1.468c0.861,12.511,10.837,16.64,17.433,15.229
	c-8.637-6.338-9.556-16.382-9.622-25.109V87.812c-0.011-7.143,4.926-19.804,18.497-19.773c15.16,0.034,23.558,19.921,14.659,30.518
	c15.494,28.661-21.498,43.054-22.611,21.43c12.041,10.304,14.863-8.945,4.906-9.761c-16.227-1.33-11.263,34.024,16.413,22.939
	c28.68-11.736,27.346-70.932-14.945-72.037c-9.737-0.251-18.65,7.463-24.471,15.007C167.281,71.664,162.58,70.53,157.439,76.008
	L157.439,76.008z M164.187,108.581V83.572c0-4.881-5.638-6.193-10.21-5.917c4.505-7.181,11.186-9.579,17.59-4.146
	c4.294-6.026,14.815-14.347,24.695-14.048c44.289,0.691,46.208,64.25,14.883,75.635c-30.319,11.019-35.016-27.912-16.063-26.576
	c12.354,1.071,8.469,21.693-2.64,15.211c4.332,12.646,32.08-0.295,17.929-25.175c9.383-9.564,1.234-28.639-12.568-28.83
	c-11.702-0.165-16.6,10.811-16.646,18.25l-0.005,70.408c-0.145,12.462,1.625,22.185,11.908,27.612
	c-10.392,4.869-21.205-2.199-23.108-12.866c-4.473,1.882-9.178,0.578-12.937-5.464c3.849-0.502,7.212-3.037,7.173-8.986v-40.176
	l-5.169-4.869L164.187,108.581L164.187,108.581z"/>
<g>
</g>
<g>
</g>
<g>
</g>
<g>
</g>
<g>
</g>
<g>
</g>
</svg>
